<?xml version="1.0" standalone="no"?>
<!DOCTYPE svg PUBLIC "-//W3C//DTD SVG 20010904//EN"
 "http://www.w3.org/TR/2001/REC-SVG-20010904/DTD/svg10.dtd">
<svg version="1.0" xmlns="http://www.w3.org/2000/svg"
 width="512.000000pt" height="512.000000pt" viewBox="0 0 512.000000 512.000000"
 preserveAspectRatio="xMidYMid meet">

<g transform="translate(0.000000,512.000000) scale(0.100000,-0.100000)"
fill="#000000" stroke="none">
<path d="M2395 5114 c-111 -9 -302 -37 -401 -60 -99 -22 -307 -84 -302 -90 2
-1 39 2 83 6 210 23 460 33 785 33 325 0 575 -10 785 -33 44 -4 82 -7 83 -5
14 14 -333 101 -495 125 -133 19 -428 33 -538 24z"/>
<path d="M2498 4280 c-21 -5 -111 -41 -200 -78 -170 -72 -677 -282 -907 -375
-183 -74 -190 -93 -61 -146 l80 -32 0 -372 0 -371 -40 -36 c-48 -41 -61 -90
-37 -139 14 -28 12 -45 -38 -283 -29 -139 -51 -255 -50 -256 10 -11 211 -19
288 -11 51 4 95 9 99 9 3 0 -3 39 -13 88 -94 426 -91 411 -73 457 21 56 7 104
-42 141 l-34 26 0 359 c0 198 4 359 8 359 11 0 176 -70 184 -79 4 -3 55 -234
113 -511 86 -414 109 -508 127 -527 25 -27 191 -83 318 -108 258 -50 577 -36
825 37 131 38 175 58 189 86 8 15 60 250 117 522 57 272 107 498 111 501 5 3
96 41 201 84 106 43 198 82 205 88 6 5 12 20 12 32 0 20 -17 30 -121 74 l-121
51 -36 -19 c-20 -11 -52 -40 -71 -65 -19 -25 -41 -46 -48 -46 -7 0 -26 27 -43
59 -20 41 -44 70 -75 92 -51 37 -56 54 -19 71 l25 12 -23 12 c-13 6 -176 75
-364 153 -354 146 -405 161 -486 141z"/>
<path d="M421 3961 c-170 -261 -291 -544 -355 -832 -169 -761 4 -1530 483
-2149 80 -104 309 -336 410 -415 369 -290 772 -465 1236 -537 185 -28 521 -30
700 -4 473 69 874 237 1245 525 104 80 336 309 416 411 291 369 472 795 540
1265 26 179 24 515 -5 700 -58 385 -184 717 -393 1038 l-73 111 -6 -219 c-10
-316 -43 -594 -104 -851 -19 -79 -22 -109 -14 -140 13 -53 13 -258 0 -314 -15
-67 -40 -132 -57 -151 -10 -11 -17 -46 -21 -96 l-6 -78 59 56 c100 94 191 147
278 163 l39 7 -5 -83 c-6 -102 -38 -189 -114 -304 -87 -132 -229 -250 -345
-287 -10 -3 -25 -30 -34 -59 -10 -29 -37 -95 -61 -147 -24 -52 -44 -95 -44
-96 0 -2 24 10 54 26 106 58 253 92 321 75 24 -6 26 -10 19 -38 -46 -214 -373
-468 -600 -468 l-52 0 -173 -173 -174 -172 60 5 c107 9 221 -6 291 -39 35 -17
64 -36 64 -42 0 -22 -103 -113 -165 -146 -182 -96 -453 -120 -609 -53 l-45 19
-98 -43 c-54 -24 -127 -54 -163 -66 -82 -29 -94 -40 -46 -40 53 0 76 -15 76
-51 0 -51 -27 -55 -203 -34 -187 22 -187 22 -374 0 -176 -21 -203 -17 -203 34
0 36 23 51 76 51 48 0 36 11 -46 40 -36 12 -109 42 -163 66 l-98 43 -45 -19
c-156 -67 -427 -43 -609 53 -68 36 -169 129 -163 148 6 19 84 56 143 69 52 11
249 15 265 5 5 -3 -69 73 -166 169 l-176 176 -52 0 c-227 0 -557 257 -601 467
-6 29 -4 33 20 39 68 17 215 -17 321 -75 30 -16 54 -27 54 -25 0 3 -10 24 -22
47 -12 23 -41 89 -64 146 -41 102 -43 104 -86 121 -211 80 -427 380 -428 593
l0 68 38 -7 c85 -16 177 -70 276 -163 l59 -56 -7 79 c-3 48 -12 86 -21 96 -17
18 -41 84 -56 150 -13 56 -13 261 0 314 8 31 5 61 -14 140 -31 132 -51 244
-69 386 -24 189 -28 245 -35 470 l-6 214 -74 -113z"/>
<path d="M801 2330 c0 -19 6 -73 13 -120 12 -82 13 -84 25 -55 20 47 16 95
-12 155 -26 55 -26 55 -26 20z"/>
<path d="M4287 2295 c-24 -59 -26 -70 -16 -111 6 -24 15 -46 19 -49 8 -5 36
213 28 220 -2 3 -17 -25 -31 -60z"/>
<path d="M969 1836 l-56 -53 33 -84 c19 -46 57 -129 84 -184 56 -113 145 -253
136 -215 -14 57 -18 219 -7 286 l11 72 -66 108 c-36 60 -69 112 -73 116 -3 3
-31 -17 -62 -46z"/>
<path d="M4021 1774 l-71 -117 10 -61 c13 -77 13 -174 0 -250 -5 -33 -8 -61
-6 -63 1 -2 31 44 65 102 56 95 132 252 173 360 l15 40 -57 53 -58 52 -71
-116z"/>
<path d="M1414 1234 c-9 -30 -32 -80 -51 -111 l-33 -55 68 -70 c85 -89 231
-211 343 -288 l87 -60 -45 68 c-58 84 -97 170 -121 261 -17 65 -26 79 -122
191 -57 66 -105 120 -106 120 -1 0 -10 -25 -20 -56z"/>
<path d="M3579 1168 c-96 -113 -106 -129 -122 -192 -24 -89 -63 -174 -119
-258 l-46 -67 77 51 c107 72 263 202 348 291 l73 75 -33 55 c-19 31 -42 81
-51 111 -10 31 -19 56 -20 56 -1 0 -49 -55 -107 -122z"/>
<path d="M2035 653 c-3 -15 -9 -45 -14 -66 -8 -37 -7 -38 28 -56 87 -44 401
-155 375 -132 -5 4 -47 34 -94 66 -47 32 -131 94 -187 137 l-102 79 -6 -28z"/>
<path d="M3000 619 c-41 -33 -124 -94 -185 -136 -60 -42 -114 -80 -119 -84
-26 -23 288 88 376 132 34 17 37 21 28 45 -6 14 -10 37 -10 52 0 53 -13 51
-90 -9z"/>
</g>
</svg>
