<svg version="1.1" id="Layer_1" xmlns="http://www.w3.org/2000/svg" xmlns:xlink="http://www.w3.org/1999/xlink" x="0px" y="0px"
	 width="100%" viewBox="0 0 512 512" enable-background="new 0 0 512 512" xml:space="preserve">
<path fill="#000000" opacity="1.000000" stroke="none" 
	d="
M289.000000,0.999998 
	C363.593719,1.000000 438.187408,1.000000 513.000000,1.000000 
	C513.000000,75.354088 513.000000,149.708389 512.610107,224.713928 
	C511.425232,222.242783 510.630219,219.120407 509.900635,215.575714 
	C508.588348,208.100937 507.210571,201.048492 505.764282,193.626404 
	C503.408356,186.170486 501.120972,179.084213 498.886108,171.744690 
	C498.901001,171.323166 498.863403,171.154892 498.843384,170.727509 
	C498.585541,170.273575 498.310120,170.078720 498.017944,169.503036 
	C496.613800,165.416153 495.226349,161.710083 493.804047,157.662750 
	C492.790192,155.547470 491.811218,153.773483 490.783020,151.645996 
	C489.433624,148.528198 488.133453,145.763916 486.791809,142.654724 
	C485.205963,139.860489 483.661560,137.411148 482.058960,134.597855 
	C478.683105,128.786530 475.365509,123.339165 472.017639,117.538460 
	C469.942200,114.126801 467.896973,111.068481 465.827332,107.670563 
	C462.214203,102.850510 458.625519,98.370033 454.912964,93.592972 
	C453.228516,91.848709 451.667969,90.401031 450.051605,88.607117 
	C446.700623,84.825333 443.405518,81.389771 439.970825,77.647446 
	C436.591003,74.211143 433.350708,71.081604 429.967468,67.641151 
	C424.900787,63.172752 419.977020,59.015266 414.896423,54.553352 
	C411.198151,51.819962 407.656708,49.390999 403.949188,46.651627 
	C399.155792,43.450466 394.528442,40.559719 389.651917,37.385513 
	C381.285461,33.032963 373.168243,28.963861 364.895630,24.565605 
	C358.225830,21.482244 351.836212,18.371021 345.172943,16.042889 
	C327.423920,9.841396 309.453979,4.420937 290.556152,2.889427 
	C289.990112,2.843554 289.516632,1.655516 289.000000,0.999998 
z"/>
<path fill="#000000" opacity="1.000000" stroke="none" 
	d="
M513.000000,289.000000 
	C513.000000,363.593719 513.000000,438.187408 513.000000,513.000000 
	C438.645905,513.000000 364.291626,513.000000 289.210663,512.623413 
	C292.379639,511.498413 296.308380,510.889465 300.164307,509.973724 
	C309.476410,507.762268 318.754517,505.407623 328.449921,503.065582 
	C337.254059,500.049438 345.654633,497.078339 354.437408,494.064880 
	C363.239960,490.046997 371.660248,486.071472 380.398773,481.944489 
	C385.147186,479.137756 389.577393,476.482452 394.312866,473.815491 
	C394.845490,473.459869 395.072784,473.115936 395.500458,472.759277 
	C395.700836,472.746521 395.874115,472.384247 396.165039,472.232697 
	C401.343231,468.733704 406.230560,465.386261 411.426727,461.900574 
	C416.529785,457.854309 421.324005,453.946320 426.420502,449.904327 
	C429.855591,446.525635 432.988373,443.280945 436.421021,439.903839 
	C438.831329,437.549774 440.941803,435.328125 443.357971,432.965210 
	C446.149384,429.894806 448.635101,426.965698 451.421753,423.901245 
	C452.853638,422.191132 453.984619,420.616394 455.405090,418.916687 
	C456.806000,417.551941 457.917450,416.312164 459.317566,414.895142 
	C460.775848,412.826080 461.945465,410.934265 463.414948,408.906128 
	C464.848206,407.193939 465.981598,405.618042 467.408508,403.880280 
	C468.506042,402.159424 469.310059,400.600403 470.410034,398.908325 
	C471.518372,397.531586 472.330780,396.287872 473.436096,394.885406 
	C474.524139,393.165070 475.319244,391.603455 476.406250,389.880463 
	C477.480835,388.180603 478.263580,386.642181 479.348145,384.929321 
	C481.044708,382.169983 482.439514,379.585083 483.993530,376.682495 
	C485.142731,374.255066 486.132660,372.145264 487.420135,369.862213 
	C488.422729,367.792480 489.127777,365.896027 489.985596,363.690277 
	C491.036621,361.587250 491.934906,359.793579 492.987366,357.688354 
	C493.705322,355.917480 494.269104,354.458130 494.990173,352.683533 
	C495.449860,351.279541 495.752289,350.190765 496.369476,348.903534 
	C498.161835,344.149872 499.639404,339.594666 501.431763,334.829315 
	C502.772217,330.412170 503.797943,326.205170 504.986664,321.672485 
	C505.710480,319.562134 506.271301,317.777496 506.898438,315.595062 
	C507.586517,312.464905 508.208282,309.732605 508.897705,306.584900 
	C509.347626,303.127075 509.729828,300.084686 510.443481,296.798584 
	C510.853241,294.776215 510.734375,292.956299 511.094238,291.236542 
	C511.270325,290.394928 512.336609,289.739624 513.000000,289.000000 
z"/>
<path fill="#000000" opacity="1.000000" stroke="none" 
	d="
M225.000000,513.000000 
	C150.406296,513.000000 75.812599,513.000000 1.000000,513.000000 
	C1.000000,438.645905 1.000000,364.291626 1.232766,289.134766 
	C2.033113,288.886902 2.600694,289.441559 3.101901,290.432037 
	C3.640249,294.933411 4.244972,298.998993 4.910569,303.480408 
	C5.704309,307.598114 6.437176,311.299988 7.118712,315.389160 
	C8.009912,318.866608 8.952441,321.956757 9.939932,325.439087 
	C10.712687,328.555634 11.440481,331.279968 12.232533,334.365509 
	C13.495318,337.830933 14.693848,340.935120 15.938589,344.412720 
	C16.948160,347.206238 17.911520,349.626434 18.936195,352.406158 
	C19.720745,354.510437 20.443977,356.255157 21.213161,358.341187 
	C22.134808,360.468842 23.010506,362.255219 23.950222,364.393982 
	C25.064718,366.830597 26.115196,368.914795 27.207886,371.337402 
	C28.224825,373.445801 29.199551,375.215851 30.215691,377.325958 
	C31.579050,379.966736 32.900993,382.267426 34.427792,384.839417 
	C35.716434,386.754456 36.800224,388.398254 37.939884,390.378845 
	C38.957760,392.156250 39.919765,393.596802 41.009258,395.324951 
	C42.131561,396.868164 43.126373,398.123810 44.103439,399.742188 
	C45.017788,401.419250 45.949886,402.733582 47.023514,404.349792 
	C48.425560,406.135590 49.686081,407.619476 50.978096,409.446625 
	C52.331524,411.555237 53.653458,413.320587 55.096230,415.389191 
	C56.462482,417.165833 57.707897,418.639160 59.089149,420.412262 
	C60.796162,422.527771 62.367340,424.343506 64.066391,426.457550 
	C66.090790,428.517822 67.987320,430.279785 70.026657,432.346069 
	C72.740189,435.113129 75.310921,437.575806 78.025406,440.343994 
	C82.098030,444.137817 86.026886,447.626160 90.094284,451.418884 
	C94.446930,455.164856 98.661018,458.606384 103.039162,462.356628 
	C108.097641,465.790833 112.992058,468.916321 118.037476,472.358093 
	C123.090172,475.466064 127.991867,478.257690 133.046051,481.369293 
	C142.115524,485.830139 151.032501,489.971069 160.130219,494.427368 
	C167.493210,497.180145 174.675476,499.617493 181.949631,502.311768 
	C182.358231,502.668945 182.674927,502.769196 183.252808,502.913391 
	C183.685654,502.916107 183.857315,502.874847 184.413010,502.912842 
	C197.162231,505.662720 209.534760,508.300629 221.880386,511.059021 
	C223.008499,511.311035 223.964233,512.334656 225.000000,513.000000 
z"/>
<path fill="#000000" opacity="1.000000" stroke="none" 
	d="
M1.000000,224.000000 
	C1.000000,149.739456 1.000000,75.478920 1.000000,1.000000 
	C75.354088,1.000000 149.708389,1.000000 224.812195,1.368093 
	C222.895447,2.225969 220.207382,2.620050 217.566757,3.222162 
	C206.344818,5.780970 194.924332,7.727300 183.980515,11.178789 
	C171.717377,15.046371 159.890289,20.296570 147.510254,24.976746 
	C140.082550,28.968653 133.018066,32.928970 125.592400,36.942009 
	C120.805634,39.959709 116.380058,42.924686 111.598907,45.942730 
	C106.789543,49.316444 102.335747,52.637100 97.573044,56.094410 
	C92.801895,60.141491 88.339661,64.051918 83.574394,68.094376 
	C80.164360,71.448593 77.057343,74.670784 73.643509,78.030991 
	C70.543190,81.074539 67.749695,83.980095 64.644241,87.031326 
	C62.272385,89.784645 60.212482,92.392296 58.006451,95.311295 
	C54.610142,99.750183 51.359962,103.877701 47.972855,108.324852 
	C45.873184,111.728340 43.910439,114.812195 41.631336,118.044098 
	C38.193890,123.426102 35.072796,128.660065 31.644119,134.061035 
	C30.280020,136.485443 29.223507,138.742844 28.006527,141.323624 
	C26.286583,145.097809 24.727106,148.548615 23.016300,152.311035 
	C21.963554,154.416458 21.062141,156.210251 20.084446,158.374786 
	C17.966873,164.484619 15.925581,170.223709 13.566388,176.161057 
	C12.221479,180.239166 11.194472,184.119019 9.986992,188.346497 
	C8.926468,192.462234 8.046415,196.230331 6.991561,200.358627 
	C5.838262,206.132278 4.859765,211.545746 3.549517,217.192245 
	C1.914538,219.426620 5.140894,222.955856 1.000000,224.000000 
z"/>
<path fill="#EE5F72" opacity="1.000000" stroke="none" 
	d="
M147.873474,24.945160 
	C159.890289,20.296570 171.717377,15.046371 183.980515,11.178789 
	C194.924332,7.727300 206.344818,5.780970 217.566757,3.222162 
	C220.207382,2.620050 222.895447,2.225969 225.280853,1.368093 
	C246.020889,1.000000 267.041779,1.000000 288.531342,0.999998 
	C289.516632,1.655516 289.990112,2.843554 290.556152,2.889427 
	C309.453979,4.420937 327.423920,9.841396 345.172943,16.042889 
	C351.836212,18.371021 358.225830,21.482244 364.541321,24.787659 
	C362.377960,25.559183 360.413544,25.971119 358.448975,25.972082 
	C290.703308,26.005301 222.957611,26.010693 155.211975,25.955168 
	C152.765549,25.953163 150.319626,25.296642 147.873474,24.945160 
z"/>
<path fill="#B64086" opacity="1.000000" stroke="none" 
	d="
M509.835205,215.998016 
	C510.630219,219.120407 511.425232,222.242783 512.610107,225.182587 
	C513.000000,229.689255 513.000000,234.378510 512.531372,239.533875 
	C464.749786,240.000290 417.436920,240.000580 370.049164,239.579895 
	C369.974304,237.230835 369.974304,235.302765 369.974304,232.813553 
	C360.188721,236.042603 351.128387,239.032333 341.595886,242.016922 
	C337.048370,242.006409 332.956848,242.209518 328.905243,241.896530 
	C327.203674,241.765076 325.586456,240.541672 324.199036,239.575150 
	C334.459900,235.950562 344.438416,232.522995 354.448547,229.190262 
	C369.937805,224.033340 385.448639,218.941162 401.297607,214.056610 
	C403.771759,214.528183 405.898102,214.964188 408.025635,214.970047 
	C427.338623,215.023178 446.652893,214.875870 465.964600,215.042099 
	C480.589813,215.167969 495.211792,215.665756 509.835205,215.998016 
z"/>
<path fill="#B64086" opacity="1.000000" stroke="none" 
	d="
M1.000000,224.464645 
	C5.140894,222.955856 1.914538,219.426620 4.025787,217.200562 
	C47.727924,216.984283 90.622177,216.952515 133.515808,217.101776 
	C136.068924,217.110672 138.616989,218.570999 141.051636,219.671158 
	C138.613831,225.991058 136.291809,231.995728 133.503021,238.000305 
	C89.024170,238.000137 45.012085,238.000061 1.000000,238.000000 
	C1.000000,233.643097 1.000000,229.286194 1.000000,224.464645 
z"/>
<path fill="#AF3C89" opacity="1.000000" stroke="none" 
	d="
M1.000000,266.000000 
	C1.000000,261.310730 1.000000,256.621490 1.419006,251.504761 
	C4.973934,251.384842 8.109427,251.954834 11.245845,251.959961 
	C49.044449,252.021713 86.843231,252.025360 124.641808,251.955322 
	C127.941277,251.949203 131.239578,251.315460 134.669342,251.322784 
	C135.492325,256.114655 136.184357,260.556946 136.465332,265.040436 
	C132.924332,265.387695 129.794739,265.955872 126.664375,265.960297 
	C84.776314,266.019531 42.888142,265.999969 1.000000,266.000000 
z"/>
<path fill="#AF3C89" opacity="1.000000" stroke="none" 
	d="
M513.000000,252.000000 
	C513.000000,256.025177 513.000000,260.050385 512.531372,264.537781 
	C464.749420,264.999725 417.436188,264.999420 370.048889,264.541046 
	C370.024872,260.055695 370.074829,256.028473 370.585632,252.001007 
	C418.364288,252.000519 465.682159,252.000259 513.000000,252.000000 
z"/>
<path fill="#B23D87" opacity="1.000000" stroke="none" 
	d="
M134.538422,250.973236 
	C131.239578,251.315460 127.941277,251.949203 124.641808,251.955322 
	C86.843231,252.025360 49.044449,252.021713 11.245845,251.959961 
	C8.109427,251.954834 4.973934,251.384842 1.419006,251.038651 
	C1.000000,246.975449 1.000000,242.950912 1.000000,238.463181 
	C45.012085,238.000061 89.024170,238.000137 133.561554,238.460114 
	C134.237381,242.937775 134.387909,246.955505 134.538422,250.973236 
z"/>
<path fill="#B23D87" opacity="1.000000" stroke="none" 
	d="
M513.000000,251.539368 
	C465.682159,252.000259 418.364288,252.000519 370.510651,251.545441 
	C370.024567,247.393692 370.074310,243.697281 370.124023,240.000885 
	C417.436920,240.000580 464.749786,240.000290 512.531372,240.000000 
	C513.000000,243.692902 513.000000,247.385818 513.000000,251.539368 
z"/>
<path fill="#1EA5DA" opacity="1.000000" stroke="none" 
	d="
M225.468658,513.000000 
	C223.964233,512.334656 223.008499,511.311035 221.880386,511.059021 
	C209.534760,508.300629 197.162231,505.662720 184.672867,502.636322 
	C186.271317,501.854767 187.993347,501.059875 189.716599,501.057220 
	C233.902008,500.989136 278.087585,500.977295 322.272766,501.093262 
	C324.199036,501.098297 326.121887,502.408447 328.046326,503.110657 
	C318.754517,505.407623 309.476410,507.762268 300.164307,509.973724 
	C296.308380,510.889465 292.379639,511.498413 288.742004,512.623413 
	C267.979095,513.000000 246.958206,513.000000 225.468658,513.000000 
z"/>
<path fill="#A24490" opacity="1.000000" stroke="none" 
	d="
M513.000000,278.000000 
	C513.000000,280.700623 513.000000,283.401276 512.531372,286.551331 
	C464.749390,287.000153 417.436096,286.999512 370.050598,286.553467 
	C370.026794,283.405457 370.075195,280.702881 370.584503,278.000488 
	C418.363617,278.000458 465.681793,278.000244 513.000000,278.000000 
z"/>
<path fill="#9C4993" opacity="1.000000" stroke="none" 
	d="
M370.122803,286.998871 
	C417.436096,286.999512 464.749390,287.000153 512.531372,287.000397 
	C513.000000,287.444458 513.000000,287.888885 513.000000,288.666656 
	C512.336609,289.739624 511.270325,290.394928 511.094238,291.236542 
	C510.734375,292.956299 510.853241,294.776215 510.010376,296.777405 
	C504.284363,296.667023 499.323364,296.054565 494.361267,296.045258 
	C452.948425,295.967438 411.535370,296.000671 370.049408,295.554932 
	C370.025238,292.405945 370.074005,289.702393 370.122803,286.998871 
z"/>
<path fill="#A5428E" opacity="1.000000" stroke="none" 
	d="
M1.000000,281.000000 
	C1.000000,278.629425 1.000000,276.258881 1.468657,273.444153 
	C43.950050,273.000031 85.962822,272.980042 127.975464,273.042969 
	C130.929153,273.047394 133.881927,273.664490 136.864532,274.356323 
	C135.915207,276.806702 134.936478,278.897491 133.491730,280.990326 
	C89.017151,280.994934 45.008575,280.997467 1.000000,281.000000 
z"/>
<path fill="#A5428E" opacity="1.000000" stroke="none" 
	d="
M513.000000,277.562500 
	C465.681793,278.000244 418.363617,278.000458 370.511047,277.567444 
	C370.025299,275.089783 370.073853,273.045380 370.583374,271.001129 
	C418.362915,271.000854 465.681458,271.000427 513.000000,271.000000 
	C513.000000,273.041656 513.000000,275.083344 513.000000,277.562500 
z"/>
<path fill="#A24490" opacity="1.000000" stroke="none" 
	d="
M1.000000,281.444153 
	C45.008575,280.997467 89.017151,280.994934 133.365479,281.323120 
	C130.925354,282.876984 128.180481,285.018982 125.358109,285.126495 
	C119.960091,285.332062 115.306190,286.759064 110.692230,290.019287 
	C105.297424,289.664612 100.337357,289.061615 95.375191,289.043823 
	C68.767616,288.948395 42.159370,288.956177 15.551739,289.043335 
	C11.422922,289.056854 7.296048,289.663727 3.168275,289.996216 
	C2.600694,289.441559 2.033113,288.886902 1.232766,288.666138 
	C1.000000,286.629425 1.000000,284.258881 1.000000,281.444153 
z"/>
<path fill="#AA3E8B" opacity="1.000000" stroke="none" 
	d="
M136.835114,273.996704 
	C133.881927,273.664490 130.929153,273.047394 127.975464,273.042969 
	C85.962822,272.980042 43.950050,273.000031 1.468657,273.000000 
	C1.000000,270.958344 1.000000,268.916656 1.000000,266.437500 
	C42.888142,265.999969 84.776314,266.019531 126.664375,265.960297 
	C129.794739,265.955872 132.924332,265.387695 136.568390,265.481750 
	C137.000046,268.586792 136.917587,271.291779 136.835114,273.996704 
z"/>
<path fill="#AA3E8B" opacity="1.000000" stroke="none" 
	d="
M513.000000,270.571533 
	C465.681458,271.000427 418.362915,271.000854 370.509918,270.576843 
	C370.024628,268.434631 370.073761,266.716888 370.122925,264.999146 
	C417.436188,264.999420 464.749420,264.999725 512.531372,265.000000 
	C513.000000,266.714355 513.000000,268.428711 513.000000,270.571533 
z"/>
<path fill="#D14F7C" opacity="1.000000" stroke="none" 
	d="
M31.951708,133.894028 
	C35.072796,128.660065 38.193890,123.426102 41.985870,118.265900 
	C44.456062,118.559616 46.255318,118.971794 48.054668,118.972176 
	C187.296417,119.002068 326.538177,119.004448 465.779907,118.953590 
	C467.869385,118.952827 469.958557,118.261070 472.047882,117.891800 
	C475.365509,123.339165 478.683105,128.786530 481.582825,134.605347 
	C333.518005,134.984238 185.871078,134.996246 38.224155,134.953217 
	C36.133236,134.952606 34.042519,134.262390 31.951708,133.894028 
z"/>
<path fill="#D85379" opacity="1.000000" stroke="none" 
	d="
M48.109787,108.005234 
	C51.359962,103.877701 54.610142,99.750183 58.403645,95.406136 
	C61.914970,95.459740 64.882881,95.964912 67.850990,95.966026 
	C176.057831,96.006439 284.264709,96.000031 392.471558,95.999969 
	C411.282898,95.999954 430.094818,96.064178 448.904846,95.906700 
	C450.954315,95.889542 452.993103,94.592789 455.036835,93.889549 
	C458.625519,98.370033 462.214203,102.850510 465.368134,107.668198 
	C325.992157,108.005363 187.050980,108.005295 48.109787,108.005234 
z"/>
<path fill="#D5527A" opacity="1.000000" stroke="none" 
	d="
M47.972858,108.324860 
	C187.050980,108.005295 325.992157,108.005363 465.392578,108.007790 
	C467.896973,111.068481 469.942200,114.126801 472.017639,117.538452 
	C469.958557,118.261070 467.869385,118.952827 465.779907,118.953590 
	C326.538177,119.004448 187.296417,119.002068 48.054668,118.972176 
	C46.255318,118.971794 44.456062,118.559616 42.302227,118.117844 
	C43.910439,114.812195 45.873184,111.728340 47.972858,108.324860 
z"/>
<path fill="#CC4C7E" opacity="1.000000" stroke="none" 
	d="
M23.167629,151.999420 
	C24.727106,148.548615 26.286583,145.097809 28.402664,141.418915 
	C31.927780,141.460571 34.896233,141.965469 37.864811,141.966248 
	C183.388214,142.004791 328.911621,141.991776 474.435028,142.041916 
	C478.567871,142.043350 482.700500,142.666412 486.833252,142.999619 
	C488.133453,145.763916 489.433624,148.528198 490.325073,151.646088 
	C334.333435,151.999588 178.750534,151.999512 23.167629,151.999420 
z"/>
<path fill="#E15876" opacity="1.000000" stroke="none" 
	d="
M83.877419,67.962349 
	C88.339661,64.051918 92.801895,60.141491 98.049179,56.102936 
	C202.154648,55.983276 305.475067,55.998447 408.795471,55.952541 
	C410.881561,55.951614 412.967346,55.238590 415.053253,54.857784 
	C419.977020,59.015266 424.900787,63.172752 429.574249,67.799850 
	C426.523346,68.513039 423.722839,68.968658 420.922180,68.969597 
	C313.038818,69.005707 205.155441,69.012627 97.272087,68.956345 
	C92.807030,68.954010 88.342300,68.308311 83.877419,67.962349 
z"/>
<path fill="#DD5678" opacity="1.000000" stroke="none" 
	d="
M64.956200,86.885651 
	C67.749695,83.980095 70.543190,81.074539 73.997498,78.253403 
	C76.623627,78.558479 78.588898,78.971748 80.554276,78.972260 
	C197.958328,79.002960 315.362396,79.006020 432.766418,78.956001 
	C435.214539,78.954956 437.662415,78.302673 440.110382,77.954208 
	C443.405518,81.389771 446.700623,84.825333 449.658508,88.765594 
	C446.851044,89.513412 444.380920,89.968513 441.910645,89.969208 
	C319.087067,90.003883 196.263474,89.999825 73.439896,89.997475 
	C71.940346,89.997444 70.290962,90.351982 68.980743,89.845093 
	C67.481911,89.265251 66.284554,87.906158 64.956200,86.885651 
z"/>
<path fill="#DF5777" opacity="1.000000" stroke="none" 
	d="
M439.970825,77.647446 
	C437.662415,78.302673 435.214539,78.954956 432.766418,78.956001 
	C315.362396,79.006020 197.958328,79.002960 80.554276,78.972260 
	C78.588898,78.971748 76.623627,78.558479 74.304321,78.115402 
	C77.057343,74.670784 80.164360,71.448593 83.574394,68.094376 
	C88.342300,68.308311 92.807030,68.954010 97.272087,68.956345 
	C205.155441,69.012627 313.038818,69.005707 420.922180,68.969597 
	C423.722839,68.968658 426.523346,68.513039 429.717163,68.110764 
	C433.350708,71.081604 436.591003,74.211143 439.970825,77.647446 
z"/>
<path fill="#C34782" opacity="1.000000" stroke="none" 
	d="
M498.833588,171.997940 
	C501.120972,179.084213 503.408356,186.170486 505.368286,193.722549 
	C502.407166,194.458847 499.773865,194.960541 497.139771,194.964783 
	C463.859680,195.018311 430.579315,194.966858 397.299530,195.079300 
	C395.198975,195.086380 393.102234,196.228683 390.629517,196.831223 
	C368.504303,189.490265 346.753265,182.160965 325.207092,174.513550 
	C327.630676,173.796982 329.848938,173.053406 332.068146,173.050659 
	C384.695099,172.985458 437.322174,173.016159 489.949127,172.957123 
	C492.910980,172.953812 495.872131,172.331924 498.833588,171.997940 
z"/>
<path fill="#E95D73" opacity="1.000000" stroke="none" 
	d="
M147.510254,24.976748 
	C150.319626,25.296642 152.765549,25.953163 155.211975,25.955168 
	C222.957611,26.010693 290.703308,26.005301 358.448975,25.972082 
	C360.413544,25.971119 362.377960,25.559183 364.696716,25.116814 
	C373.168243,28.963861 381.285461,33.032963 389.186462,37.503471 
	C386.514771,38.268925 384.059479,38.949543 381.603760,38.951183 
	C299.063904,39.006371 216.523972,39.016685 133.984222,38.908195 
	C131.306458,38.904675 128.630417,37.591797 125.953583,36.889286 
	C133.018066,32.928970 140.082550,28.968653 147.510254,24.976748 
z"/>
<path fill="#CE4E7D" opacity="1.000000" stroke="none" 
	d="
M486.791809,142.654724 
	C482.700500,142.666412 478.567871,142.043350 474.435028,142.041916 
	C328.911621,141.991776 183.388214,142.004791 37.864811,141.966248 
	C34.896233,141.965469 31.927780,141.460571 28.563133,141.095551 
	C29.223507,138.742844 30.280020,136.485443 31.644119,134.061035 
	C34.042519,134.262390 36.133236,134.952606 38.224155,134.953217 
	C185.871078,134.996246 333.518005,134.984238 481.641052,134.969315 
	C483.661560,137.411148 485.205963,139.860489 486.791809,142.654724 
z"/>
<path fill="#C84A80" opacity="1.000000" stroke="none" 
	d="
M498.886108,171.744690 
	C495.872131,172.331924 492.910980,172.953812 489.949127,172.957123 
	C437.322174,173.016159 384.695099,172.985458 332.068146,173.050659 
	C329.848938,173.053406 327.630676,173.796982 324.839966,174.485397 
	C310.465363,169.988510 296.662750,165.201660 283.160553,160.149536 
	C287.013580,159.256241 290.565308,158.086197 294.118958,158.080444 
	C360.692139,157.972504 427.265564,158.002731 493.838928,158.004028 
	C495.226349,161.710083 496.613800,165.416153 498.130127,169.700378 
	C498.425507,170.532532 498.614410,170.768570 498.825775,170.986618 
	C498.863403,171.154892 498.901001,171.323166 498.886108,171.744690 
z"/>
<path fill="#CA4B7F" opacity="1.000000" stroke="none" 
	d="
M493.804047,157.662750 
	C427.265564,158.002731 360.692139,157.972504 294.118958,158.080444 
	C290.565308,158.086197 287.013580,159.256241 282.782715,160.056946 
	C273.949829,157.294174 265.836212,153.985870 257.276733,159.102310 
	C256.070984,159.823044 254.510315,159.950012 252.820740,160.082458 
	C249.320023,159.208771 246.113159,158.081146 242.904831,158.076920 
	C168.656891,157.978836 94.408791,158.002747 20.160725,158.004044 
	C21.062141,156.210251 21.963554,154.416458 23.016298,152.311035 
	C178.750534,151.999512 334.333435,151.999588 490.374268,151.999603 
	C491.811218,153.773483 492.790192,155.547470 493.804047,157.662750 
z"/>
<path fill="#E75C74" opacity="1.000000" stroke="none" 
	d="
M125.592400,36.942009 
	C128.630417,37.591797 131.306458,38.904675 133.984222,38.908195 
	C216.523972,39.016685 299.063904,39.006371 381.603760,38.951183 
	C384.059479,38.949543 386.514771,38.268925 389.435669,37.786922 
	C394.528442,40.559719 399.155792,43.450466 403.522949,46.695549 
	C399.962738,47.366570 396.663727,47.945877 393.362640,47.957634 
	C370.727264,48.038265 348.091522,48.000008 325.455872,47.999996 
	C256.883179,47.999962 188.310455,48.023006 119.737946,47.910828 
	C117.142357,47.906582 114.548920,46.593067 111.954475,45.889668 
	C116.380058,42.924686 120.805634,39.959709 125.592400,36.942009 
z"/>
<path fill="#E55A75" opacity="1.000000" stroke="none" 
	d="
M111.598907,45.942730 
	C114.548920,46.593067 117.142357,47.906582 119.737946,47.910828 
	C188.310455,48.023006 256.883179,47.999962 325.455872,47.999996 
	C348.091522,48.000008 370.727264,48.038265 393.362640,47.957634 
	C396.663727,47.945877 399.962738,47.366570 403.688965,47.005959 
	C407.656708,49.390999 411.198151,51.819962 414.896423,54.553352 
	C412.967346,55.238590 410.881561,55.951614 408.795471,55.952541 
	C305.475067,55.998447 202.154648,55.983276 98.358086,55.966286 
	C102.335747,52.637100 106.789543,49.316444 111.598907,45.942730 
z"/>
<path fill="#DA5479" opacity="1.000000" stroke="none" 
	d="
M64.644241,87.031326 
	C66.284554,87.906158 67.481911,89.265251 68.980743,89.845093 
	C70.290962,90.351982 71.940346,89.997444 73.439896,89.997475 
	C196.263474,89.999825 319.087067,90.003883 441.910645,89.969208 
	C444.380920,89.968513 446.851044,89.513412 449.714355,89.111832 
	C451.667969,90.401031 453.228516,91.848709 454.912964,93.592964 
	C452.993103,94.592789 450.954315,95.889542 448.904846,95.906700 
	C430.094818,96.064178 411.282898,95.999954 392.471558,95.999969 
	C284.264709,96.000031 176.057831,96.006439 67.850990,95.966026 
	C64.882881,95.964912 61.914970,95.459740 58.549774,95.094772 
	C60.212482,92.392296 62.272385,89.784645 64.644241,87.031326 
z"/>
<path fill="#BC4384" opacity="1.000000" stroke="none" 
	d="
M391.003723,196.842865 
	C393.102234,196.228683 395.198975,195.086380 397.299530,195.079300 
	C430.579315,194.966858 463.859680,195.018311 497.139771,194.964783 
	C499.773865,194.960541 502.407166,194.458847 505.436829,194.092194 
	C507.210571,201.048492 508.588348,208.100937 509.900665,215.575699 
	C495.211792,215.665756 480.589813,215.167969 465.964600,215.042099 
	C446.652893,214.875870 427.338623,215.023178 408.025635,214.970047 
	C405.898102,214.964188 403.771759,214.528183 401.558655,213.815613 
	C402.884064,212.853241 404.513763,212.661682 405.658478,211.814667 
	C407.592773,210.383347 409.220093,208.537216 410.976501,206.865509 
	C409.113190,205.250259 407.490906,203.099533 405.336945,202.130127 
	C400.704376,200.045181 395.798004,198.568512 391.003723,196.842865 
z"/>
<path fill="#C34782" opacity="1.000000" stroke="none" 
	d="
M498.843384,170.727509 
	C498.614410,170.768570 498.425507,170.532532 498.146881,170.081207 
	C498.310120,170.078720 498.585541,170.273575 498.843384,170.727509 
z"/>
<path fill="#3D8EC8" opacity="1.000000" stroke="none" 
	d="
M102.875107,462.047913 
	C98.661018,458.606384 94.446930,455.164856 90.281418,451.073395 
	C92.845581,449.949005 95.360886,449.061157 97.876778,449.059479 
	C202.823166,448.990051 307.769592,448.987274 412.716003,449.043976 
	C417.183594,449.046387 421.650818,449.692230 426.118225,450.038330 
	C421.324005,453.946320 416.529785,457.854309 411.010986,461.808167 
	C407.652466,461.569153 405.018616,461.036255 402.384491,461.035095 
	C305.507568,460.992493 208.630585,460.989960 111.753647,461.043274 
	C108.793953,461.044922 105.834610,461.698334 102.875107,462.047913 
z"/>
<path fill="#6C6BAE" opacity="1.000000" stroke="none" 
	d="
M30.174282,376.985870 
	C29.199551,375.215851 28.224825,373.445801 27.604099,371.242310 
	C30.095076,370.539734 32.232014,370.035522 34.369030,370.035156 
	C185.286880,370.009583 336.204742,370.024200 487.122589,370.035492 
	C486.132660,372.145264 485.142731,374.255066 483.535522,376.682434 
	C332.003601,376.995300 181.088943,376.990601 30.174282,376.985870 
z"/>
<path fill="#428AC5" opacity="1.000000" stroke="none" 
	d="
M426.420532,449.904358 
	C421.650818,449.692230 417.183594,449.046387 412.716003,449.043976 
	C307.769592,448.987274 202.823166,448.990051 97.876778,449.059479 
	C95.360886,449.061157 92.845581,449.949005 90.142868,450.768982 
	C86.026886,447.626160 82.098030,444.137817 78.501587,440.336304 
	C197.929733,440.027496 317.025452,440.031891 436.121155,440.036255 
	C432.988373,443.280945 429.855591,446.525635 426.420532,449.904358 
z"/>
<path fill="#6471B2" opacity="1.000000" stroke="none" 
	d="
M37.884010,390.042053 
	C36.800224,388.398254 35.716434,386.754456 34.841290,384.586121 
	C37.652409,383.707764 40.254620,383.047180 42.857395,383.044952 
	C109.485535,382.988098 176.113724,383.000000 242.741913,383.000000 
	C318.531464,383.000000 394.321075,382.976257 470.110474,383.089050 
	C473.090088,383.093506 476.067780,384.402557 479.046326,385.103760 
	C478.263580,386.642181 477.480835,388.180603 475.930237,389.872070 
	C329.402924,390.030762 183.643463,390.036407 37.884010,390.042053 
z"/>
<path fill="#4D83BF" opacity="1.000000" stroke="none" 
	d="
M69.883842,432.041748 
	C67.987320,430.279785 66.090790,428.517822 64.252579,426.108093 
	C66.154274,424.973846 67.997459,424.062317 69.841042,424.061523 
	C196.934280,424.006622 324.027527,424.024689 451.120789,424.036591 
	C448.635101,426.965698 446.149384,429.894806 443.003723,432.742798 
	C440.712158,432.441162 439.080536,432.027863 437.448853,432.027649 
	C314.927185,432.011444 192.405502,432.027893 69.883842,432.041748 
z"/>
<path fill="#3594CD" opacity="1.000000" stroke="none" 
	d="
M103.039169,462.356628 
	C105.834610,461.698334 108.793953,461.044922 111.753647,461.043274 
	C208.630585,460.989960 305.507568,460.992493 402.384491,461.035095 
	C405.018616,461.036255 407.652466,461.569153 410.702148,461.946442 
	C406.230560,465.386261 401.343231,468.733704 395.663818,472.155029 
	C390.906158,471.821045 386.939484,471.046722 382.975220,471.059082 
	C294.612122,471.334320 206.249329,471.696320 117.886459,472.041809 
	C112.992058,468.916321 108.097641,465.790833 103.039169,462.356628 
z"/>
<path fill="#2C9BD2" opacity="1.000000" stroke="none" 
	d="
M159.949493,494.111969 
	C151.032501,489.971069 142.115524,485.830139 133.438889,481.210205 
	C135.313965,480.489136 136.948578,480.036133 138.583405,480.035400 
	C217.146713,480.000305 295.710052,479.989380 374.273224,480.091431 
	C376.209869,480.093964 378.144806,481.398590 380.080536,482.095947 
	C371.660248,486.071472 363.239960,490.046997 354.083130,493.842010 
	C351.549103,493.439911 349.751709,493.025635 347.954071,493.024628 
	C287.372711,492.990967 226.791321,492.985504 166.209991,493.043610 
	C164.122818,493.045593 162.036316,493.740204 159.949493,494.111969 
z"/>
<path fill="#4886C2" opacity="1.000000" stroke="none" 
	d="
M70.026649,432.346069 
	C192.405502,432.027893 314.927185,432.011444 437.448853,432.027649 
	C439.080536,432.027863 440.712158,432.441162 442.698059,432.884094 
	C440.941803,435.328125 438.831329,437.549774 436.421021,439.903870 
	C317.025452,440.031891 197.929733,440.027496 78.357826,440.030823 
	C75.310921,437.575806 72.740189,435.113129 70.026649,432.346069 
z"/>
<path fill="#7466AA" opacity="1.000000" stroke="none" 
	d="
M23.886206,364.041595 
	C23.010506,362.255219 22.134808,360.468842 21.671078,358.341248 
	C47.025791,357.999725 71.968811,358.048615 96.910767,357.908234 
	C98.957664,357.896729 100.997314,356.597412 103.357285,356.127869 
	C105.654999,356.932678 107.626617,357.961334 109.618118,358.001404 
	C118.555298,358.181061 127.499245,358.155609 136.438065,358.022766 
	C138.504654,357.992096 140.560623,357.247437 143.031006,356.998413 
	C146.405197,357.443634 149.369781,357.963959 152.334549,357.965057 
	C265.834076,358.006287 379.333588,357.999939 492.833130,357.999878 
	C491.934906,359.793579 491.036621,361.587250 489.527710,363.690460 
	C333.906769,364.013855 178.896484,364.027710 23.886206,364.041595 
z"/>
<path fill="#7069AC" opacity="1.000000" stroke="none" 
	d="
M23.950222,364.393982 
	C178.896484,364.027710 333.906769,364.013855 489.374939,363.999786 
	C489.127777,365.896027 488.422729,367.792480 487.420135,369.862213 
	C336.204742,370.024200 185.286880,370.009583 34.369030,370.035156 
	C32.232014,370.035522 30.095076,370.539734 27.561886,370.903931 
	C26.115196,368.914795 25.064718,366.830597 23.950222,364.393982 
z"/>
<path fill="#7F5EA4" opacity="1.000000" stroke="none" 
	d="
M501.117004,335.039429 
	C499.639404,339.594666 498.161835,344.149872 496.014526,348.681946 
	C493.047729,348.438812 490.750702,348.027771 488.453491,348.026581 
	C421.718475,347.992188 354.983459,348.018860 288.248596,347.917847 
	C285.832825,347.914215 283.418884,346.719543 281.264343,345.842499 
	C289.683441,341.460449 297.842255,337.315796 306.206177,333.489136 
	C308.626587,334.205109 310.841461,334.948212 313.057251,334.950867 
	C375.743774,335.026062 438.430389,335.026672 501.117004,335.039429 
z"/>
<path fill="#686EB0" opacity="1.000000" stroke="none" 
	d="
M479.348145,384.929321 
	C476.067780,384.402557 473.090088,383.093506 470.110474,383.089050 
	C394.321075,382.976257 318.531464,383.000000 242.741913,383.000000 
	C176.113724,383.000000 109.485535,382.988098 42.857395,383.044952 
	C40.254620,383.047180 37.652409,383.707764 34.636436,384.314819 
	C32.900993,382.267426 31.579050,379.966736 30.215694,377.325958 
	C181.088943,376.990601 332.003601,376.995300 483.376282,377.000122 
	C482.439514,379.585083 481.044708,382.169983 479.348145,384.929321 
z"/>
<path fill="#7763A8" opacity="1.000000" stroke="none" 
	d="
M492.987335,357.688354 
	C379.333588,357.999939 265.834076,358.006287 152.334549,357.965057 
	C149.369781,357.963959 146.405197,357.443634 143.138306,356.576111 
	C142.938034,353.657288 143.040009,351.327728 143.601440,348.998596 
	C179.129196,348.999176 214.197601,349.034698 249.265488,348.917114 
	C251.511658,348.909607 253.753860,347.717072 256.358551,347.000122 
	C261.743469,348.241486 265.743225,353.804688 272.199219,350.847595 
	C274.975433,351.411133 277.415894,351.961121 279.856781,351.962769 
	C348.390930,352.009125 416.925079,351.986877 485.459229,352.042389 
	C488.584045,352.044891 491.708344,352.665863 494.832886,352.998779 
	C494.269104,354.458130 493.705322,355.917480 492.987335,357.688354 
z"/>
<path fill="#567CBA" opacity="1.000000" stroke="none" 
	d="
M54.975388,415.085876 
	C53.653458,413.320587 52.331524,411.555237 51.332829,409.224976 
	C53.621822,408.440063 55.587532,408.028076 57.553337,408.027618 
	C190.291901,407.997437 323.030487,407.994751 455.769012,408.043823 
	C458.217834,408.044739 460.666382,408.695099 463.115051,409.042450 
	C461.945465,410.934265 460.775848,412.826080 458.962921,414.677429 
	C456.518799,414.424774 454.718048,414.027130 452.917206,414.026733 
	C322.360718,413.997742 191.804245,413.995239 61.247780,414.045380 
	C59.156849,414.046173 57.066177,414.723999 54.975388,415.085876 
z"/>
<path fill="#8659A0" opacity="1.000000" stroke="none" 
	d="
M501.431763,334.829315 
	C438.430389,335.026672 375.743774,335.026062 313.057251,334.950867 
	C310.841461,334.948212 308.626587,334.205109 306.524353,333.314209 
	C315.251770,328.587158 323.866089,324.352997 332.820190,320.437805 
	C335.735382,321.171082 338.310364,321.943634 340.886292,321.946899 
	C395.532013,322.016052 450.177887,321.998657 504.823669,321.998169 
	C503.797943,326.205170 502.772217,330.412170 501.431763,334.829315 
z"/>
<path fill="#2F98D0" opacity="1.000000" stroke="none" 
	d="
M380.398773,481.944458 
	C378.144806,481.398590 376.209869,480.093964 374.273224,480.091431 
	C295.710052,479.989380 217.146713,480.000305 138.583405,480.035400 
	C136.948578,480.036133 135.313965,480.489136 133.286407,480.890259 
	C127.991867,478.257690 123.090172,475.466064 118.037476,472.358124 
	C206.249329,471.696320 294.612122,471.334320 382.975220,471.059082 
	C386.939484,471.046722 390.906158,471.821045 395.372925,472.306580 
	C395.874115,472.384247 395.700836,472.746521 395.275146,472.934967 
	C394.568817,473.358002 394.288208,473.592590 394.007568,473.827148 
	C389.577393,476.482452 385.147186,479.137756 380.398773,481.944458 
z"/>
<path fill="#5E76B5" opacity="1.000000" stroke="none" 
	d="
M44.121189,399.379456 
	C43.126373,398.123810 42.131561,396.868164 41.435806,395.281189 
	C45.202736,394.633209 48.670506,394.040955 52.138485,394.039764 
	C188.008163,393.992950 323.877869,393.990082 459.747528,394.043915 
	C464.212891,394.045685 468.677979,394.696106 473.143188,395.044159 
	C472.330780,396.287872 471.518372,397.531586 469.936829,398.899170 
	C329.476624,399.015930 189.785553,399.007202 50.094471,399.017334 
	C48.103371,399.017487 46.112286,399.253510 44.121189,399.379456 
z"/>
<path fill="#5C78B7" opacity="1.000000" stroke="none" 
	d="
M44.103443,399.742188 
	C46.112286,399.253510 48.103371,399.017487 50.094471,399.017334 
	C189.785553,399.007202 329.476624,399.015930 469.640900,399.032227 
	C469.310059,400.600403 468.506042,402.159424 466.932465,403.871887 
	C326.402618,404.032837 186.642303,404.040375 46.881989,404.047882 
	C45.949886,402.733582 45.017788,401.419250 44.103443,399.742188 
z"/>
<path fill="#537EBC" opacity="1.000000" stroke="none" 
	d="
M55.096230,415.389160 
	C57.066177,414.723999 59.156849,414.046173 61.247780,414.045380 
	C191.804245,413.995239 322.360718,413.997742 452.917206,414.026733 
	C454.718048,414.027130 456.518799,414.424774 458.674255,414.854675 
	C457.917450,416.312164 456.806000,417.551941 454.929047,418.908386 
	C324.516571,419.016815 194.869614,419.003326 65.222672,419.046539 
	C63.132771,419.047211 61.043098,419.741760 58.953316,420.112488 
	C57.707897,418.639160 56.462482,417.165833 55.096230,415.389160 
z"/>
<path fill="#5080BD" opacity="1.000000" stroke="none" 
	d="
M59.089153,420.412262 
	C61.043098,419.741760 63.132771,419.047211 65.222672,419.046539 
	C194.869614,419.003326 324.516571,419.016815 454.639587,419.033386 
	C453.984619,420.616394 452.853638,422.191132 451.421753,423.901245 
	C324.027527,424.024689 196.934280,424.006622 69.841042,424.061523 
	C67.997459,424.062317 66.154274,424.973846 64.124710,425.809784 
	C62.367340,424.343506 60.796162,422.527771 59.089153,420.412262 
z"/>
<path fill="#6173B4" opacity="1.000000" stroke="none" 
	d="
M473.436096,394.885406 
	C468.677979,394.696106 464.212891,394.045685 459.747528,394.043915 
	C323.877869,393.990082 188.008163,393.992950 52.138485,394.039764 
	C48.670506,394.040955 45.202736,394.633209 41.308319,394.993591 
	C39.919765,393.596802 38.957760,392.156250 37.939880,390.378845 
	C183.643463,390.036407 329.402924,390.030762 475.638367,390.033508 
	C475.319244,391.603455 474.524139,393.165070 473.436096,394.885406 
z"/>
<path fill="#5979B8" opacity="1.000000" stroke="none" 
	d="
M47.023518,404.349792 
	C186.642303,404.040375 326.402618,404.032837 466.638977,404.033691 
	C465.981598,405.618042 464.848206,407.193939 463.414917,408.906128 
	C460.666382,408.695099 458.217834,408.044739 455.769012,408.043823 
	C323.030487,407.994751 190.291901,407.997437 57.553337,408.027618 
	C55.587532,408.028076 53.621822,408.440063 51.301334,408.881653 
	C49.686081,407.619476 48.425560,406.135590 47.023518,404.349792 
z"/>
<path fill="#925099" opacity="1.000000" stroke="none" 
	d="
M508.830048,307.000275 
	C508.208282,309.732605 507.586517,312.464905 506.440613,315.597443 
	C455.468170,315.998810 405.019714,316.036682 354.571686,315.914703 
	C351.366364,315.906982 348.164032,314.657135 345.198364,313.736389 
	C351.626007,310.373291 357.815643,307.259003 364.207428,304.465454 
	C366.624512,305.190735 368.838867,305.944031 371.054565,305.948090 
	C410.014801,306.019775 448.975281,305.951385 487.935394,306.045044 
	C494.901001,306.061768 501.865204,306.666870 508.830048,307.000275 
z"/>
<path fill="#24A1D7" opacity="1.000000" stroke="none" 
	d="
M160.130219,494.427368 
	C162.036316,493.740204 164.122818,493.045593 166.209991,493.043610 
	C226.791321,492.985504 287.372711,492.990967 347.954071,493.024628 
	C349.751709,493.025635 351.549103,493.439911 353.700867,493.884399 
	C345.654633,497.078339 337.254059,500.049438 328.449921,503.065613 
	C326.121887,502.408447 324.199036,501.098297 322.272766,501.093262 
	C278.087585,500.977295 233.902008,500.989136 189.716599,501.057220 
	C187.993347,501.059875 186.271317,501.854767 184.288849,502.557068 
	C183.857315,502.874847 183.685654,502.916107 183.079895,502.756012 
	C182.399384,502.362427 182.136688,502.195801 181.857742,502.054840 
	C174.675476,499.617493 167.493210,497.180145 160.130219,494.427368 
z"/>
<path fill="#974C96" opacity="1.000000" stroke="none" 
	d="
M508.897705,306.584900 
	C501.865204,306.666870 494.901001,306.061768 487.935394,306.045044 
	C448.975281,305.951385 410.014801,306.019775 371.054565,305.948090 
	C368.838867,305.944031 366.624512,305.190735 364.516968,304.287140 
	C367.977875,302.265839 370.527679,300.176239 370.122375,296.000397 
	C411.535370,296.000671 452.948425,295.967438 494.361267,296.045258 
	C499.323364,296.054565 504.284363,296.667023 509.678955,297.021088 
	C509.729828,300.084686 509.347626,303.127075 508.897705,306.584900 
z"/>
<path fill="#91589E" opacity="1.000000" stroke="none" 
	d="
M344.960327,313.985168 
	C348.164032,314.657135 351.366364,315.906982 354.571686,315.914703 
	C405.019714,316.036682 455.468170,315.998810 506.374329,315.995270 
	C506.271301,317.777496 505.710480,319.562134 504.986694,321.672485 
	C450.177887,321.998657 395.532013,322.016052 340.886292,321.946899 
	C338.310364,321.943634 335.735382,321.171082 333.000732,320.112427 
	C332.963104,317.975769 333.084778,316.483521 333.656158,314.993011 
	C336.549957,314.952606 338.993988,314.910431 341.744110,314.841064 
	C343.020233,314.537598 343.990265,314.261353 344.960327,313.985168 
z"/>
<path fill="#7A61A6" opacity="1.000000" stroke="none" 
	d="
M494.990173,352.683533 
	C491.708344,352.665863 488.584045,352.044891 485.459229,352.042389 
	C416.925079,351.986877 348.390930,352.009125 279.856781,351.962769 
	C277.415894,351.961121 274.975433,351.411133 272.449371,350.627625 
	C275.244019,348.785645 278.124054,347.432800 281.004089,346.079926 
	C283.418884,346.719543 285.832825,347.914215 288.248596,347.917847 
	C354.983459,348.018860 421.718475,347.992188 488.453491,348.026581 
	C490.750702,348.027771 493.047729,348.438812 495.699768,348.880402 
	C495.752289,350.190765 495.449860,351.279541 494.990173,352.683533 
z"/>
<path fill="#3594CD" opacity="1.000000" stroke="none" 
	d="
M394.312866,473.815491 
	C394.288208,473.592590 394.568817,473.358002 395.074768,472.947693 
	C395.072784,473.115936 394.845490,473.459869 394.312866,473.815491 
z"/>
<path fill="#8C559D" opacity="1.000000" stroke="none" 
	d="
M9.894968,325.046906 
	C8.952441,321.956757 8.009912,318.866608 7.576423,315.388794 
	C39.497223,315.000702 70.909042,315.025269 102.320641,314.954041 
	C104.930176,314.948120 107.538246,314.294891 110.492355,313.989258 
	C118.514748,320.069061 126.379608,320.656921 134.970459,314.878784 
	C151.745087,314.936310 168.014420,315.001495 184.283371,314.949554 
	C186.226288,314.943359 188.167160,314.299225 190.472961,313.940002 
	C192.162201,313.026215 194.525421,316.999481 195.571640,313.094269 
	C198.351425,313.458282 200.751572,313.730194 203.260941,314.395508 
	C202.301895,319.555511 205.287796,321.587097 208.796692,323.452637 
	C206.551163,324.183167 204.507858,324.937744 202.461411,324.946350 
	C181.667648,325.033783 160.873398,324.999603 139.959320,324.683533 
	C138.996597,323.900055 137.778748,322.808472 137.365982,323.056488 
	C127.706810,328.861298 118.188004,328.726257 108.615211,322.857361 
	C108.271324,322.646545 107.167801,323.674774 105.923904,324.101868 
	C75.527985,324.053772 45.626434,324.009796 15.724992,324.049744 
	C13.781209,324.052399 11.838287,324.699554 9.894968,325.046906 
z"/>
<path fill="#9C4993" opacity="1.000000" stroke="none" 
	d="
M3.101901,290.432037 
	C7.296048,289.663727 11.422922,289.056854 15.551739,289.043335 
	C42.159370,288.956177 68.767616,288.948395 95.375191,289.043823 
	C100.337357,289.061615 105.297424,289.664612 110.548378,290.335419 
	C109.239456,294.448303 107.640617,298.223267 105.570503,301.998352 
	C74.295609,301.998688 43.491924,301.973236 12.688470,302.045349 
	C10.074764,302.051453 7.462584,302.709412 4.849695,303.064545 
	C4.244972,298.998993 3.640249,294.933411 3.101901,290.432037 
z"/>
<path fill="#925099" opacity="1.000000" stroke="none" 
	d="
M4.910569,303.480408 
	C7.462584,302.709412 10.074764,302.051453 12.688470,302.045349 
	C43.491924,301.973236 74.295609,301.998688 105.683540,302.370911 
	C107.560905,306.476349 108.853951,310.209381 110.147003,313.942383 
	C107.538246,314.294891 104.930176,314.948120 102.320641,314.954041 
	C70.909042,315.025269 39.497223,315.000702 7.627752,315.001465 
	C6.437176,311.299988 5.704309,307.598114 4.910569,303.480408 
z"/>
<path fill="#8659A0" opacity="1.000000" stroke="none" 
	d="
M9.939929,325.439087 
	C11.838287,324.699554 13.781209,324.052399 15.724992,324.049744 
	C45.626434,324.009796 75.527985,324.053772 105.943405,324.525330 
	C105.977150,327.982574 105.497002,330.992737 104.547134,334.002869 
	C73.441040,334.003357 42.804661,334.003845 12.168280,334.004303 
	C11.440481,331.279968 10.712687,328.555634 9.939929,325.439087 
z"/>
<path fill="#7F5EA4" opacity="1.000000" stroke="none" 
	d="
M12.232536,334.365509 
	C42.804661,334.003845 73.441040,334.003357 104.590637,334.426453 
	C104.686455,337.900604 104.269051,340.951141 103.392296,344.001770 
	C73.919418,344.014313 44.905895,344.026825 15.892376,344.039307 
	C14.693848,340.935120 13.495318,337.830933 12.232536,334.365509 
z"/>
<path fill="#7A61A6" opacity="1.000000" stroke="none" 
	d="
M15.938588,344.412689 
	C44.905895,344.026825 73.919418,344.014313 103.432144,344.404114 
	C103.564568,347.204132 103.197792,349.601807 102.372948,351.999756 
	C74.234879,352.015503 46.554882,352.031067 18.874882,352.046631 
	C17.911520,349.626434 16.948160,347.206238 15.938588,344.412689 
z"/>
<path fill="#7763A8" opacity="1.000000" stroke="none" 
	d="
M18.936199,352.406189 
	C46.554882,352.031067 74.234879,352.015503 102.419754,352.387634 
	C102.963203,353.815674 103.001770,354.856110 103.040337,355.896515 
	C100.997314,356.597412 98.957664,357.896729 96.910767,357.908234 
	C71.968811,358.048615 47.025791,357.999725 21.625130,357.999939 
	C20.443977,356.255157 19.720745,354.510437 18.936199,352.406189 
z"/>
<path fill="#1EA5DA" opacity="1.000000" stroke="none" 
	d="
M181.949631,502.311768 
	C182.136688,502.195801 182.399384,502.362427 182.818726,502.712036 
	C182.674927,502.769196 182.358231,502.668945 181.949631,502.311768 
z"/>
<path fill="#C84A80" opacity="1.000000" stroke="none" 
	d="
M20.084444,158.374786 
	C94.408791,158.002747 168.656891,157.978836 242.904831,158.076920 
	C246.113159,158.081146 249.320023,159.208771 252.565399,160.338409 
	C248.710999,162.174896 244.828430,163.515732 240.924728,164.791885 
	C227.299362,169.246231 213.666672,173.678207 199.685181,177.893799 
	C197.038696,177.445557 194.743942,177.028885 192.448898,177.027267 
	C140.384460,176.990311 88.319931,177.039886 36.255619,176.952682 
	C28.797977,176.940186 21.341372,176.308121 13.884288,175.962799 
	C15.925581,170.223709 17.966873,164.484619 20.084444,158.374786 
z"/>
<path fill="#BC4384" opacity="1.000000" stroke="none" 
	d="
M141.167389,219.355896 
	C138.616989,218.570999 136.068924,217.110672 133.515808,217.101776 
	C90.622177,216.952515 47.727924,216.984283 4.357539,216.967529 
	C4.859765,211.545746 5.838262,206.132278 7.449556,200.358994 
	C46.630966,199.999542 85.179634,199.972778 123.728073,200.054276 
	C126.656776,200.060471 129.583862,200.834442 132.213745,201.486237 
	C129.324768,202.977203 125.155403,202.454163 125.441559,207.035110 
	C125.706833,211.281845 129.527985,211.230927 132.345978,212.269669 
	C136.064819,213.640503 139.825333,214.898270 143.567932,216.204636 
	C143.963455,216.666534 144.358978,217.128433 144.754501,217.590332 
	C143.558792,218.178848 142.363083,218.767365 141.167389,219.355896 
z"/>
<path fill="#C34782" opacity="1.000000" stroke="none" 
	d="
M13.566387,176.161057 
	C21.341372,176.308121 28.797977,176.940186 36.255619,176.952682 
	C88.319931,177.039886 140.384460,176.990311 192.448898,177.027267 
	C194.743942,177.028885 197.038696,177.445557 199.483887,178.208496 
	C188.108856,182.567001 176.583511,186.385895 164.876648,189.851074 
	C162.365356,188.998260 160.036301,188.067657 157.705658,188.063660 
	C108.526367,187.979233 59.346901,187.999268 10.167466,187.998871 
	C11.194472,184.119019 12.221479,180.239166 13.566387,176.161057 
z"/>
<path fill="#C04583" opacity="1.000000" stroke="none" 
	d="
M9.986994,188.346497 
	C59.346901,187.999268 108.526367,187.979233 157.705658,188.063660 
	C160.036301,188.067657 162.365356,188.998260 164.602539,190.090225 
	C153.843857,194.205902 143.177780,197.728699 132.511703,201.251495 
	C129.583862,200.834442 126.656776,200.060471 123.728073,200.054276 
	C85.179634,199.972778 46.630966,199.999542 7.624358,199.998810 
	C8.046415,196.230331 8.926468,192.462234 9.986994,188.346497 
z"/>
<path fill="#FDFCFD" opacity="1.000000" stroke="none" 
	d="
M132.213745,201.486206 
	C143.177780,197.728699 153.843857,194.205902 164.784058,190.443954 
	C176.583511,186.385895 188.108856,182.567001 199.835480,178.433411 
	C213.666672,173.678207 227.299362,169.246231 240.924728,164.791885 
	C244.828430,163.515732 248.710999,162.174896 252.858582,160.607788 
	C254.510315,159.950012 256.070984,159.823044 257.276733,159.102310 
	C265.836212,153.985870 273.949829,157.294174 282.482361,160.322220 
	C296.662750,165.201660 310.465363,169.988510 324.635101,174.803497 
	C346.753265,182.160965 368.504303,189.490265 390.629517,196.831238 
	C395.798004,198.568512 400.704376,200.045181 405.336945,202.130127 
	C407.490906,203.099533 409.113190,205.250259 410.976501,206.865509 
	C409.220093,208.537216 407.592773,210.383347 405.658478,211.814667 
	C404.513763,212.661682 402.884064,212.853241 401.211365,213.580536 
	C385.448639,218.941162 369.937805,224.033340 354.448547,229.190262 
	C344.438416,232.522995 334.459900,235.950562 323.812164,239.597565 
	C306.759430,245.364609 290.333801,250.788864 273.984833,256.435120 
	C270.184875,257.747437 266.827789,257.852570 262.930603,256.519226 
	C228.774841,244.833527 194.547592,233.356750 160.338211,221.827866 
	C153.520096,219.530106 150.423157,220.387329 146.778366,226.667740 
	C144.909637,229.887787 143.004410,233.806900 143.140732,237.331772 
	C143.511169,246.910950 144.961746,256.448364 145.915192,266.444702 
	C144.821365,272.564911 143.796509,278.242706 142.511292,284.121307 
	C140.257874,286.680176 138.264847,289.038208 136.659393,290.937683 
	C137.895386,294.522156 139.011734,297.759674 140.061432,301.400635 
	C138.151535,306.153107 136.308289,310.502136 134.465027,314.851166 
	C126.379608,320.656921 118.514748,320.069061 110.492355,313.989258 
	C108.853951,310.209381 107.560905,306.476349 106.154816,302.370789 
	C107.640617,298.223267 109.239456,294.448303 110.982147,290.357178 
	C115.306190,286.759064 119.960091,285.332062 125.358109,285.126495 
	C128.180481,285.018982 130.925354,282.876984 133.831482,281.321045 
	C134.936478,278.897491 135.915207,276.806702 136.864532,274.356323 
	C136.917587,271.291779 137.000046,268.586792 136.979462,265.440552 
	C136.184357,260.556946 135.492325,256.114655 134.669342,251.322800 
	C134.387909,246.955505 134.237381,242.937775 134.028320,238.460205 
	C136.291809,231.995728 138.613831,225.991058 141.051620,219.671143 
	C142.363083,218.767365 143.558792,218.178848 144.754501,217.590332 
	C144.358978,217.128433 143.963455,216.666534 143.567932,216.204636 
	C139.825333,214.898270 136.064819,213.640503 132.345978,212.269669 
	C129.527985,211.230927 125.706833,211.281845 125.441559,207.035110 
	C125.155403,202.454163 129.324768,202.977203 132.213745,201.486206 
M241.107040,191.114563 
	C240.539246,185.962997 239.097427,185.016541 233.897339,186.752716 
	C218.642426,191.845932 203.412125,197.012878 188.175797,202.161591 
	C185.278839,203.140549 181.882645,204.188751 183.227554,208.160461 
	C184.658844,212.387253 188.091949,211.073425 191.175629,210.032166 
	C206.095291,204.994186 221.036911,200.020477 235.927551,194.898422 
	C237.709579,194.285461 239.228668,192.908020 241.107040,191.114563 
M320.035583,201.387192 
	C328.990814,204.446350 337.941071,207.520126 346.904144,210.556061 
	C349.733093,211.514252 352.775513,211.382675 353.182159,208.020248 
	C353.381104,206.374924 351.306427,203.355957 349.619080,202.752213 
	C333.834167,197.104431 317.908295,191.850815 302.027740,186.469772 
	C299.187683,185.507446 296.505859,185.553879 295.438110,188.798752 
	C294.344818,192.121124 296.683044,193.569260 299.458130,194.490448 
	C306.073273,196.686401 312.677277,198.915894 320.035583,201.387192 
z"/>
<path fill="#B3418A" opacity="1.000000" stroke="none" 
	d="
M145.984177,266.002319 
	C144.961746,256.448364 143.511169,246.910950 143.140732,237.331772 
	C143.004410,233.806900 144.909637,229.887787 146.778366,226.667740 
	C150.423157,220.387329 153.520096,219.530106 160.338211,221.827866 
	C194.547592,233.356750 228.774841,244.833527 262.930603,256.519226 
	C266.827789,257.852570 270.184875,257.747437 273.984833,256.435120 
	C290.333801,250.788864 306.759430,245.364609 323.544006,239.837097 
	C325.586456,240.541672 327.203674,241.765076 328.905243,241.896530 
	C332.956848,242.209518 337.048370,242.006409 341.446167,242.464432 
	C341.574127,251.277023 341.379639,259.636963 340.737427,267.997131 
	C337.928558,267.998413 335.567322,267.999451 333.135101,267.536682 
	C333.064087,260.110291 333.064087,253.147766 333.064087,245.519440 
	C330.763245,246.214920 329.046021,246.683929 327.361694,247.250854 
	C309.719788,253.188766 292.153625,259.367981 274.389221,264.912567 
	C270.562073,266.107056 265.711060,266.029388 261.869293,264.824158 
	C244.431549,259.353577 227.187973,253.264389 209.868851,247.414673 
	C208.036835,246.795898 206.167480,246.287674 203.163559,245.380142 
	C203.163559,254.524277 203.163559,262.789368 202.717133,271.043640 
	C199.909698,271.020996 197.548691,271.009186 195.118988,270.533325 
	C195.039154,262.097687 195.103210,254.124603 194.946716,246.155869 
	C194.918961,244.742798 194.314423,242.427170 193.398300,242.087631 
	C184.775848,238.891937 176.027817,236.035065 166.507919,232.806305 
	C166.507919,244.456635 166.507919,255.227478 166.071320,265.999146 
	C159.084534,266.000732 152.534348,266.001526 145.984177,266.002319 
z"/>
<path fill="#FDFCFD" opacity="1.000000" stroke="none" 
	d="
M341.185120,267.996918 
	C341.379639,259.636963 341.574127,251.277023 341.918335,242.469559 
	C351.128387,239.032333 360.188721,236.042603 369.974304,232.813553 
	C369.974304,235.302765 369.974304,237.230835 370.049164,239.579895 
	C370.074310,243.697281 370.024567,247.393692 370.049805,251.545654 
	C370.074829,256.028473 370.024872,260.055695 370.048889,264.541046 
	C370.073761,266.716888 370.024628,268.434631 370.048950,270.576660 
	C370.073853,273.045380 370.025299,275.089783 370.050171,277.567261 
	C370.075195,280.702881 370.026794,283.405457 370.050598,286.553467 
	C370.074005,289.702393 370.025238,292.405945 370.049408,295.554932 
	C370.527679,300.176239 367.977875,302.265839 364.314880,303.966431 
	C357.815643,307.259003 351.626007,310.373291 345.198364,313.736359 
	C343.990265,314.261353 343.020233,314.537598 341.760925,314.391541 
	C341.369629,310.644836 341.267609,307.320435 341.275665,303.540588 
	C341.310913,298.056427 341.236084,293.027679 341.272736,287.541687 
	C341.317841,280.721893 341.251495,274.359406 341.185120,267.996918 
z"/>
<path fill="#FDFCFD" opacity="1.000000" stroke="none" 
	d="
M103.357285,356.127869 
	C103.001770,354.856110 102.963203,353.815674 102.877823,352.387390 
	C103.197792,349.601807 103.564568,347.204132 103.891495,344.404053 
	C104.269051,340.951141 104.686455,337.900604 105.060349,334.426453 
	C105.497002,330.992737 105.977150,327.982574 106.437805,324.549011 
	C107.167801,323.674774 108.271324,322.646545 108.615211,322.857361 
	C118.188004,328.726257 127.706810,328.861298 137.365982,323.056488 
	C137.778748,322.808472 138.996597,323.900055 139.915771,325.113708 
	C140.447784,329.240784 140.903412,332.621674 141.336853,336.401093 
	C141.923782,340.865814 142.532883,344.932007 143.141968,348.998199 
	C143.040009,351.327728 142.938034,353.657288 142.728790,356.409088 
	C140.560623,357.247437 138.504654,357.992096 136.438065,358.022766 
	C127.499245,358.155609 118.555298,358.181061 109.618118,358.001404 
	C107.626617,357.961334 105.654999,356.932678 103.357285,356.127869 
z"/>
<path fill="#FDFDFD" opacity="1.000000" stroke="none" 
	d="
M203.163559,271.054443 
	C203.163559,262.789368 203.163559,254.524277 203.163559,245.380142 
	C206.167480,246.287674 208.036835,246.795898 209.868851,247.414673 
	C227.187973,253.264389 244.431549,259.353577 261.869293,264.824158 
	C265.711060,266.029388 270.562073,266.107056 274.389221,264.912567 
	C292.153625,259.367981 309.719788,253.188766 327.361694,247.250854 
	C329.046021,246.683929 330.763245,246.214920 333.064087,245.519440 
	C333.064087,253.147766 333.064087,260.110291 333.066406,268.000610 
	C333.117615,275.281158 333.166534,281.633911 333.143219,288.449768 
	C333.119385,293.938538 333.167786,298.964172 333.144653,304.443634 
	C333.117554,308.262054 333.161987,311.626648 333.206421,314.991241 
	C333.084778,316.483521 332.963104,317.975769 332.660950,319.793427 
	C323.866089,324.352997 315.251770,328.587158 306.319275,332.996216 
	C297.842255,337.315796 289.683441,341.460449 281.264343,345.842499 
	C278.124054,347.432800 275.244019,348.785645 272.113831,350.358490 
	C265.743225,353.804688 261.743469,348.241486 256.037842,346.859375 
	C247.568741,342.644531 239.781036,338.494690 231.685059,334.138062 
	C223.917007,330.330994 216.457230,326.730713 208.997452,323.130402 
	C205.287796,321.587097 202.301895,319.555511 203.369232,313.937927 
	C203.294495,307.393188 203.220703,301.699524 203.253082,295.546906 
	C203.294006,287.076813 203.228775,279.065613 203.163559,271.054443 
z"/>
<path fill="#7F5EA4" opacity="1.000000" stroke="none" 
	d="
M231.993332,334.344849 
	C239.781036,338.494690 247.568741,342.644531 255.677185,346.935089 
	C253.753860,347.717072 251.511658,348.909607 249.265488,348.917114 
	C214.197601,349.034698 179.129196,348.999176 143.601440,348.998596 
	C142.532883,344.932007 141.923782,340.865814 141.782227,336.400269 
	C170.027191,336.000580 197.804718,336.036530 225.581711,335.928375 
	C227.720932,335.920044 229.856216,334.896515 231.993332,334.344849 
z"/>
<path fill="#925099" opacity="1.000000" stroke="none" 
	d="
M333.656158,314.993011 
	C333.161987,311.626648 333.117554,308.262054 333.581482,304.444824 
	C336.448425,303.993469 338.807007,303.994751 341.165588,303.996002 
	C341.267609,307.320435 341.369629,310.644836 341.454834,314.418762 
	C338.993988,314.910431 336.549957,314.952606 333.656158,314.993011 
z"/>
<path fill="#FDFDFD" opacity="1.000000" stroke="none" 
	d="
M166.507904,265.998322 
	C166.507919,255.227478 166.507919,244.456635 166.507919,232.806305 
	C176.027817,236.035065 184.775848,238.891937 193.398300,242.087631 
	C194.314423,242.427170 194.918961,244.742798 194.946716,246.155869 
	C195.103210,254.124603 195.039154,262.097687 195.051361,270.997955 
	C195.101257,279.616821 195.150070,287.307037 195.127319,295.460510 
	C195.101166,301.616577 195.146576,307.309387 195.191986,313.002167 
	C194.525421,316.999481 192.162201,313.026215 190.309555,313.622986 
	C182.234634,309.194763 174.687103,305.072754 167.068451,300.489990 
	C166.826096,294.687531 166.654877,289.345917 166.578156,283.544495 
	C166.617737,277.389252 166.562820,271.693787 166.507904,265.998322 
z"/>
<path fill="#8659A0" opacity="1.000000" stroke="none" 
	d="
M231.685059,334.138062 
	C229.856216,334.896515 227.720932,335.920044 225.581711,335.928375 
	C197.804718,336.036530 170.027191,336.000580 141.804413,336.001770 
	C140.903412,332.621674 140.447784,329.240784 140.035706,325.429688 
	C160.873398,324.999603 181.667648,325.033783 202.461411,324.946350 
	C204.507858,324.937744 206.551163,324.183167 208.796692,323.452637 
	C216.457230,326.730713 223.917007,330.330994 231.685059,334.138062 
z"/>
<path fill="#925099" opacity="1.000000" stroke="none" 
	d="
M167.139587,300.950745 
	C174.687103,305.072754 182.234634,309.194763 189.945557,313.633789 
	C188.167160,314.299225 186.226288,314.943359 184.283371,314.949554 
	C168.014420,315.001495 151.745087,314.936310 134.970459,314.878784 
	C136.308289,310.502136 138.151535,306.153107 140.521820,301.401367 
	C149.745758,300.982666 158.442673,300.966705 167.139587,300.950745 
z"/>
<path fill="#925099" opacity="1.000000" stroke="none" 
	d="
M195.571640,313.094269 
	C195.146576,307.309387 195.101166,301.616577 195.523575,295.473724 
	C198.376572,295.351044 200.761749,295.678406 203.146927,296.005798 
	C203.220703,301.699524 203.294495,307.393188 203.259995,313.544495 
	C200.751572,313.730194 198.351425,313.458282 195.571640,313.094269 
z"/>
<path fill="#C34782" opacity="1.000000" stroke="none" 
	d="
M240.988342,191.499741 
	C239.228668,192.908020 237.709579,194.285461 235.927551,194.898422 
	C221.036911,200.020477 206.095291,204.994186 191.175629,210.032166 
	C188.091949,211.073425 184.658844,212.387253 183.227554,208.160461 
	C181.882645,204.188751 185.278839,203.140549 188.175797,202.161591 
	C203.412125,197.012878 218.642426,191.845932 233.897339,186.752716 
	C239.097427,185.016541 240.539246,185.962997 240.988342,191.499741 
z"/>
<path fill="#C34782" opacity="1.000000" stroke="none" 
	d="
M319.660706,201.259521 
	C312.677277,198.915894 306.073273,196.686401 299.458130,194.490448 
	C296.683044,193.569260 294.344818,192.121124 295.438110,188.798752 
	C296.505859,185.553879 299.187683,185.507446 302.027740,186.469772 
	C317.908295,191.850815 333.834167,197.104431 349.619080,202.752213 
	C351.306427,203.355957 353.381104,206.374924 353.182159,208.020248 
	C352.775513,211.382675 349.733093,211.514252 346.904144,210.556061 
	C337.941071,207.520126 328.990814,204.446350 319.660706,201.259521 
z"/>
<path fill="#9C4993" opacity="1.000000" stroke="none" 
	d="
M167.068451,300.489960 
	C158.442673,300.966705 149.745758,300.982666 140.588470,300.997925 
	C139.011734,297.759674 137.895386,294.522156 136.659393,290.937683 
	C138.264847,289.038208 140.257874,286.680176 142.994629,284.137329 
	C151.320099,283.969757 158.901886,283.987030 166.483658,284.004272 
	C166.654877,289.345917 166.826096,294.687531 167.068451,300.489960 
z"/>
<path fill="#A5428E" opacity="1.000000" stroke="none" 
	d="
M166.578156,283.544495 
	C158.901886,283.987030 151.320099,283.969757 143.255005,283.936523 
	C143.796509,278.242706 144.821365,272.564911 145.915192,266.444702 
	C152.534348,266.001526 159.084534,266.000732 166.071304,265.999146 
	C166.562820,271.693787 166.617737,277.389252 166.578156,283.544495 
z"/>
<path fill="#A24490" opacity="1.000000" stroke="none" 
	d="
M203.253082,295.546875 
	C200.761749,295.678406 198.376572,295.351044 195.595139,295.010437 
	C195.150070,287.307037 195.101257,279.616821 195.120056,271.462006 
	C197.548691,271.009186 199.909698,271.020996 202.717133,271.043640 
	C203.228775,279.065613 203.294006,287.076813 203.253082,295.546875 
z"/>
<path fill="#A5428E" opacity="1.000000" stroke="none" 
	d="
M333.215454,287.986694 
	C333.166534,281.633911 333.117615,275.281158 333.137390,268.464478 
	C335.567322,267.999451 337.928558,267.998413 340.737457,267.997131 
	C341.251495,274.359406 341.317841,280.721893 340.827148,287.541443 
	C337.918549,287.994537 335.566986,287.990601 333.215454,287.986694 
z"/>
<path fill="#9C4993" opacity="1.000000" stroke="none" 
	d="
M333.143219,288.449799 
	C335.566986,287.990601 337.918549,287.994537 340.715698,287.998718 
	C341.236084,293.027679 341.310913,298.056427 341.275665,303.540588 
	C338.807007,303.994751 336.448425,303.993469 333.653015,303.990997 
	C333.167786,298.964172 333.119385,293.938538 333.143219,288.449799 
z"/>
</svg>