<?xml version="1.0" standalone="no"?>
<!DOCTYPE svg PUBLIC "-//W3C//DTD SVG 20010904//EN"
 "http://www.w3.org/TR/2001/REC-SVG-20010904/DTD/svg10.dtd">
<svg version="1.0" xmlns="http://www.w3.org/2000/svg"
 width="512.000000pt" height="512.000000pt" viewBox="0 0 512.000000 512.000000"
 preserveAspectRatio="xMidYMid meet">
<metadata>
Created by potrace 1.16, written by Peter Selinger 2001-2019
</metadata>
<g transform="translate(0.000000,512.000000) scale(0.100000,-0.100000)"
fill="#000000" stroke="none">
<path d="M1760 4995 c-14 -8 -35 -14 -47 -15 -13 0 -23 -4 -23 -8 0 -4 -21
-14 -47 -20 -26 -7 -63 -20 -83 -29 -334 -151 -548 -294 -784 -523 -407 -395
-651 -863 -751 -1440 -26 -149 -32 -541 -11 -711 70 -555 303 -1048 682 -1446
l117 -123 1745 0 1746 0 101 103 c125 127 190 207 299 371 132 196 240 427
310 659 75 248 106 466 106 747 0 426 -79 766 -265 1145 -117 237 -262 441
-460 644 -211 216 -435 380 -700 510 -79 39 -148 71 -153 71 -5 0 -22 7 -38
14 -15 8 -31 13 -36 10 -4 -3 -8 -1 -8 3 0 30 -100 33 -887 33 -533 0 -792 3
-788 10 8 13 5 12 -25 -5z m1628 -1660 c382 -129 698 -237 703 -241 12 -7 12
-61 -1 -69 -14 -9 -1371 -466 -1401 -472 -19 -3 -198 53 -578 181 -304 103
-558 189 -565 192 -8 3 -32 -11 -54 -31 -71 -63 -88 -165 -57 -328 29 -150 16
-241 -45 -309 l-37 -43 19 -30 c22 -37 23 -106 2 -152 -41 -86 -153 -119 -238
-69 -49 29 -86 90 -86 144 0 94 81 172 180 172 114 0 155 100 115 280 -19 86
-19 204 0 268 9 28 31 71 49 95 l33 44 -71 22 c-39 13 -81 29 -94 37 -25 16
-29 46 -8 63 20 17 1385 480 1416 480 14 1 337 -105 718 -234z m-1582 -581
l134 -47 0 -368 0 -368 -127 66 c-71 36 -136 74 -145 85 -16 18 -18 50 -18
349 0 236 3 329 11 329 6 0 72 -21 145 -46z m1882 -296 l-3 -343 -130 -67
c-71 -37 -136 -67 -142 -68 -10 0 -13 79 -13 364 l0 363 133 46 c72 25 138 46
145 46 10 1 12 -71 10 -341z m-1333 111 c160 -55 301 -99 315 -99 14 0 166 47
338 104 l312 104 0 -374 0 -374 -321 -161 c-177 -88 -329 -159 -338 -157 -9 2
-157 74 -328 161 l-313 157 0 376 0 375 23 -7 c12 -3 153 -51 312 -105z
m-1211 -695 c61 -21 141 -14 196 17 22 12 42 21 44 18 2 -2 13 -78 25 -168 20
-150 21 -166 6 -180 -13 -13 -45 -17 -167 -19 -178 -4 -216 1 -227 30 -6 17
19 257 35 327 5 22 6 22 23 7 10 -9 39 -23 65 -32z"/>
<path d="M2091 3180 c-150 -51 -259 -94 -265 -103 -14 -21 3 -51 30 -54 32 -4
526 171 538 190 14 22 -3 51 -30 53 -10 1 -134 -38 -273 -86z"/>
<path d="M2956 3254 c-40 -39 -16 -52 274 -149 211 -70 263 -85 275 -75 20 17
19 56 -2 65 -32 13 -517 175 -525 175 -3 0 -14 -7 -22 -16z"/>
</g>
</svg>
