<svg version="1.1" id="Layer_1" xmlns="http://www.w3.org/2000/svg" xmlns:xlink="http://www.w3.org/1999/xlink" x="0px" y="0px"
	 width="100%" viewBox="0 0 512 512" enable-background="new 0 0 512 512" xml:space="preserve">
<path fill="#51499A" opacity="1.000000" stroke="none" 
	d="
M289.000000,513.000000 
	C267.979095,513.000000 246.958206,513.000000 225.552155,512.584595 
	C221.553116,511.443787 217.956589,510.614105 214.322586,510.009857 
	C189.556198,505.891876 165.929367,498.261993 143.427124,487.136536 
	C126.401245,478.718658 109.959534,469.183990 95.991821,456.298767 
	C81.546669,442.972992 67.111610,429.394012 54.497116,414.391357 
	C40.761757,398.055603 30.120306,379.411835 21.759508,359.562561 
	C12.534202,337.660889 5.629469,315.194763 2.915105,291.517700 
	C2.811860,290.617126 1.662097,289.836517 1.000000,289.000000 
	C1.000000,267.645782 1.000000,246.291550 1.412223,224.555954 
	C2.210467,223.337280 2.799502,222.534851 2.950250,221.657135 
	C4.112307,214.891266 4.791407,208.016998 6.362455,201.351273 
	C12.832605,173.899429 22.629667,147.732330 37.735287,123.774300 
	C41.819946,117.295891 46.507206,111.197418 50.995270,105.392563 
	C52.070271,127.126305 52.143200,148.488846 54.356121,169.627350 
	C56.147816,186.742188 60.514267,203.587479 63.741501,220.919952 
	C63.158714,230.849899 61.873695,240.435577 62.191425,249.967804 
	C62.487263,258.843262 63.906540,267.853882 70.243301,275.443115 
	C70.487869,280.582184 70.729736,285.300751 71.001816,289.999756 
	C71.032036,289.980194 71.098763,289.953125 70.749268,290.013885 
	C60.361923,279.911194 50.226994,269.913452 33.810387,268.489502 
	C34.052238,273.260101 33.657413,277.471161 34.564995,281.379822 
	C39.550247,302.849701 51.455444,320.050415 70.653252,330.423279 
	C79.577209,335.245056 84.260216,341.143219 87.079384,350.007935 
	C88.709435,355.133545 90.974396,360.057190 92.618767,364.969543 
	C80.422363,358.354462 68.297874,353.095062 53.987495,356.057373 
	C54.276043,357.729889 54.373871,358.551331 54.562195,359.351501 
	C59.899235,382.027618 91.371262,405.895081 116.674896,406.220520 
	C119.852547,406.261414 121.763977,407.343201 123.890022,409.539856 
	C132.684433,418.626068 141.716156,427.483215 150.703979,436.380829 
	C151.696198,437.363129 152.965881,438.065155 154.106873,438.897217 
	C153.872147,439.291992 153.637421,439.686798 153.402695,440.081573 
	C139.323288,439.425110 125.190483,438.513550 112.496925,447.835754 
	C114.452919,450.230347 115.868660,452.277344 117.590347,454.022522 
	C133.926727,470.581879 170.356750,477.139160 191.560638,467.627045 
	C193.466934,466.771912 196.332565,466.873383 198.336319,467.631256 
	C205.331955,470.277344 212.129623,473.442871 219.034195,476.335449 
	C221.963776,477.562805 224.971893,478.602753 227.944336,479.727844 
	C226.755249,480.687714 225.802582,480.882629 224.846909,480.898560 
	C221.212646,480.959229 217.818085,481.663239 218.009613,486.198212 
	C218.200851,490.725464 221.656219,491.252197 225.265854,490.893311 
	C233.051025,490.119171 240.816864,489.134460 248.610352,488.466187 
	C253.189178,488.073547 257.837402,487.711243 262.399017,488.059967 
	C271.688049,488.770111 280.931824,490.053802 290.210846,490.924438 
	C293.439514,491.227417 295.858551,489.735931 296.011383,486.211823 
	C296.163849,482.697998 293.935516,481.208649 290.654633,480.979614 
	C289.184479,480.876984 287.718018,480.721466 285.312653,480.505981 
	C296.690765,475.607605 306.879547,471.159424 317.142029,466.888306 
	C318.309387,466.402496 320.035431,466.537994 321.258423,467.013245 
	C346.732788,476.912537 370.270996,472.084808 392.370331,457.475861 
	C395.842346,455.180664 398.414886,451.524841 401.807129,448.089203 
	C388.750610,438.486053 374.589600,439.446228 360.428009,440.081482 
	C360.682251,439.201569 360.675781,438.821442 360.862610,438.634705 
	C371.101685,428.403381 381.328918,418.159698 391.657593,408.019440 
	C392.600769,407.093445 394.181610,406.407135 395.504303,406.338104 
	C421.830505,404.964752 440.765442,391.351196 454.906036,370.167419 
	C457.542877,366.217224 458.670563,361.259674 461.017700,355.479095 
	C455.293457,355.479095 450.938812,354.554474 447.185608,355.664154 
	C438.320068,358.285370 429.740662,361.874481 420.897644,364.710815 
	C424.419983,355.443237 428.045776,346.518097 431.818878,337.655670 
	C432.270020,336.596039 433.365173,335.481079 434.426910,335.059631 
	C455.839417,326.560547 468.980591,310.283386 477.216614,289.490875 
	C479.800995,282.966370 481.130798,276.145691 479.384460,268.567383 
	C477.083710,268.894531 474.923248,268.945526 472.918732,269.530640 
	C463.731934,272.212280 456.275452,277.723297 449.424316,284.196198 
	C447.319153,286.185120 445.084625,288.037170 442.939758,289.966309 
	C442.970215,289.980743 443.026184,290.018158 442.925018,289.567200 
	C443.132965,284.415924 443.442108,279.715607 443.984497,274.749146 
	C445.485291,272.376160 447.076447,270.396667 447.964264,268.140442 
	C451.801727,258.387787 452.752716,248.164261 452.101959,237.802277 
	C451.739594,232.033142 450.873291,226.295670 450.451782,220.211716 
	C454.186890,198.632782 458.529510,177.479889 460.959259,156.109497 
	C462.883453,139.185516 462.461243,121.994759 463.384399,105.078339 
	C464.452301,106.095772 465.333069,106.880165 465.963776,107.830498 
	C475.411224,122.065460 484.363525,136.521835 491.223145,152.295914 
	C500.166779,172.862320 506.982147,193.932358 510.106934,216.179428 
	C510.530579,219.195572 512.009644,222.063461 513.000000,225.000000 
	C513.000000,246.020889 513.000000,267.041779 512.583984,288.448700 
	C511.111908,294.388336 510.064758,299.943665 508.998260,305.495270 
	C504.828979,327.197784 498.061493,348.065491 488.475677,367.971039 
	C479.885284,385.809479 470.030640,403.026581 456.626709,417.637115 
	C443.237305,432.231812 429.514923,446.742828 414.417328,459.488647 
	C398.104218,473.260620 379.422241,483.841370 359.585754,492.227142 
	C337.684814,501.485748 315.200348,508.347260 291.521729,511.084808 
	C290.619415,511.189178 289.837830,512.337891 289.000000,513.000000 
z"/>
<path fill="#000000" opacity="1.000000" stroke="none" 
	d="
M1.000000,289.468658 
	C1.662097,289.836517 2.811860,290.617126 2.915105,291.517700 
	C5.629469,315.194763 12.534202,337.660889 21.759508,359.562561 
	C30.120306,379.411835 40.761757,398.055603 54.497116,414.391357 
	C67.111610,429.394012 81.546669,442.972992 95.991821,456.298767 
	C109.959534,469.183990 126.401245,478.718658 143.427124,487.136536 
	C165.929367,498.261993 189.556198,505.891876 214.322586,510.009857 
	C217.956589,510.614105 221.553116,511.443787 225.083496,512.584595 
	C150.406296,513.000000 75.812599,513.000000 1.000000,513.000000 
	C1.000000,438.645905 1.000000,364.291626 1.000000,289.468658 
z"/>
<path fill="#000000" opacity="1.000000" stroke="none" 
	d="
M289.468628,513.000000 
	C289.837830,512.337891 290.619415,511.189178 291.521729,511.084808 
	C315.200348,508.347260 337.684814,501.485748 359.585754,492.227142 
	C379.422241,483.841370 398.104218,473.260620 414.417328,459.488647 
	C429.514923,446.742828 443.237305,432.231812 456.626709,417.637115 
	C470.030640,403.026581 479.885284,385.809479 488.475677,367.971039 
	C498.061493,348.065491 504.828979,327.197784 508.998260,305.495270 
	C510.064758,299.943665 511.111908,294.388336 512.583984,288.917358 
	C513.000000,363.593719 513.000000,438.187408 513.000000,513.000000 
	C438.645905,513.000000 364.291626,513.000000 289.468628,513.000000 
z"/>
<path fill="#000000" opacity="1.000000" stroke="none" 
	d="
M513.000000,224.531342 
	C512.009644,222.063461 510.530579,219.195572 510.106934,216.179428 
	C506.982147,193.932358 500.166779,172.862320 491.223145,152.295914 
	C484.363525,136.521835 475.411224,122.065460 465.963776,107.830498 
	C465.333069,106.880165 464.452301,106.095772 463.338104,104.618652 
	C462.658386,96.080605 462.800415,88.103729 461.895386,80.247475 
	C460.257446,66.028992 458.033325,51.876698 455.910278,37.718292 
	C455.761810,36.728168 454.586243,35.402985 453.621796,35.109608 
	C449.614471,33.890656 445.544617,32.790039 441.426086,32.038864 
	C422.587494,28.602940 403.756866,25.102678 384.859344,22.017952 
	C372.332520,19.973150 359.697449,18.591696 346.898071,16.604836 
	C328.312408,10.338909 309.924347,4.454844 290.500549,2.857031 
	C289.953156,2.812002 289.498108,1.644241 289.000000,1.000000 
	C363.593719,1.000000 438.187408,1.000000 513.000000,1.000000 
	C513.000000,75.354088 513.000000,149.708389 513.000000,224.531342 
z"/>
<path fill="#000000" opacity="1.000000" stroke="none" 
	d="
M50.917870,104.924553 
	C46.507206,111.197418 41.819946,117.295891 37.735287,123.774300 
	C22.629667,147.732330 12.832605,173.899429 6.362455,201.351273 
	C4.791407,208.016998 4.112307,214.891266 2.950250,221.657135 
	C2.799502,222.534851 2.210467,223.337280 1.412223,224.087296 
	C1.000000,149.739456 1.000000,75.478920 1.000000,1.000000 
	C75.354088,1.000000 149.708389,1.000000 224.617859,1.415621 
	C219.996063,2.884960 214.748169,3.674625 209.655685,5.042799 
	C195.409653,8.870214 181.227890,12.936813 166.576141,16.966791 
	C159.122620,17.695583 152.064529,18.044470 145.115295,19.105978 
	C131.457062,21.192301 117.821938,23.477198 104.246712,26.046915 
	C89.619576,28.815756 75.061584,31.956877 60.512459,35.115391 
	C59.509171,35.333199 58.303890,36.950844 58.093323,38.084770 
	C57.202534,42.881699 56.495846,47.726120 56.006256,52.581856 
	C54.247692,70.023125 52.604603,87.476036 50.917870,104.924553 
z"/>
<path fill="#544A99" opacity="1.000000" stroke="none" 
	d="
M167.020767,16.909023 
	C181.227890,12.936813 195.409653,8.870214 209.655685,5.042799 
	C214.748169,3.674625 219.996063,2.884960 225.086517,1.415621 
	C246.020889,1.000000 267.041779,1.000000 288.531342,1.000000 
	C289.498108,1.644241 289.953156,2.812002 290.500549,2.857031 
	C309.924347,4.454844 328.312408,10.338909 346.448120,16.664646 
	C340.748108,16.561510 335.284546,16.099003 329.822662,15.617273 
	C291.509521,12.238119 253.140320,11.565372 214.740021,13.575226 
	C198.819061,14.408521 182.926331,15.781485 167.020767,16.909023 
z"/>
<path fill="#9BCE1C" opacity="1.000000" stroke="none" 
	d="
M421.045563,365.072174 
	C429.740662,361.874481 438.320068,358.285370 447.185608,355.664154 
	C450.938812,354.554474 455.293457,355.479095 461.017700,355.479095 
	C458.670563,361.259674 457.542877,366.217224 454.906036,370.167419 
	C440.765442,391.351196 421.830505,404.964752 395.504303,406.338104 
	C394.181610,406.407135 392.600769,407.093445 391.657593,408.019440 
	C381.328918,418.159698 371.101685,428.403381 360.862610,438.634705 
	C360.675781,438.821442 360.682251,439.201569 360.428009,440.081482 
	C374.589600,439.446228 388.750610,438.486053 401.807129,448.089203 
	C398.414886,451.524841 395.842346,455.180664 392.370331,457.475861 
	C370.270996,472.084808 346.732788,476.912537 321.258423,467.013245 
	C320.035431,466.537994 318.309387,466.402496 317.142029,466.888306 
	C306.879547,471.159424 296.690765,475.607605 285.312653,480.505981 
	C287.718018,480.721466 289.184479,480.876984 290.654633,480.979614 
	C293.935516,481.208649 296.163849,482.697998 296.011383,486.211823 
	C295.858551,489.735931 293.439514,491.227417 290.210846,490.924438 
	C280.931824,490.053802 271.688049,488.770111 262.399017,488.059967 
	C257.837402,487.711243 253.189178,488.073547 248.610352,488.466187 
	C240.816864,489.134460 233.051025,490.119171 225.265854,490.893311 
	C221.656219,491.252197 218.200851,490.725464 218.009613,486.198212 
	C217.818085,481.663239 221.212646,480.959229 224.846909,480.898560 
	C225.802582,480.882629 226.755249,480.687714 227.944336,479.727844 
	C224.971893,478.602753 221.963776,477.562805 219.034195,476.335449 
	C212.129623,473.442871 205.331955,470.277344 198.336319,467.631256 
	C196.332565,466.873383 193.466934,466.771912 191.560638,467.627045 
	C170.356750,477.139160 133.926727,470.581879 117.590347,454.022522 
	C115.868660,452.277344 114.452919,450.230347 112.496925,447.835754 
	C125.190483,438.513550 139.323288,439.425110 153.402695,440.081573 
	C153.637421,439.686798 153.872147,439.291992 154.106873,438.897217 
	C152.965881,438.065155 151.696198,437.363129 150.703979,436.380829 
	C141.716156,427.483215 132.684433,418.626068 123.890022,409.539856 
	C121.763977,407.343201 119.852547,406.261414 116.674896,406.220520 
	C91.371262,405.895081 59.899235,382.027618 54.562195,359.351501 
	C54.373871,358.551331 54.276043,357.729889 53.987495,356.057373 
	C68.297874,353.095062 80.422363,358.354462 92.589386,364.943237 
	C92.894852,365.019135 92.920128,364.943481 93.041245,365.113434 
	C93.323822,365.520355 93.535484,365.697327 94.057945,366.054962 
	C96.554794,367.715942 98.707283,369.969543 101.062447,370.206268 
	C102.246376,370.325195 103.798660,366.778381 105.439415,365.107361 
	C109.449066,371.230408 113.203674,377.135406 116.961060,383.247009 
	C117.138458,383.654236 117.313080,383.854889 117.487694,384.055542 
	C117.467651,383.574219 117.447617,383.092865 117.417526,382.183044 
	C115.182419,369.926422 115.968651,358.148346 118.166260,346.042725 
	C121.401337,338.828583 124.464859,331.962585 127.838348,325.034363 
	C130.748245,322.423798 132.661789,323.542664 134.591919,325.975952 
	C140.747009,333.735657 143.247055,342.930298 145.178131,352.763794 
	C144.844345,363.321594 144.525177,373.478333 144.079102,384.016174 
	C141.066498,391.584442 138.180832,398.771606 134.915405,406.904541 
	C147.867462,421.552094 163.476532,435.027496 182.105759,446.758301 
	C178.106812,439.457672 174.263611,433.580811 171.574829,427.216248 
	C168.814468,420.682251 167.182205,413.671722 165.060883,406.409058 
	C164.768494,397.386719 163.934097,388.763733 168.325836,380.726074 
	C172.884445,383.353058 178.024902,385.135071 181.037567,388.710144 
	C187.280670,396.118652 192.393051,404.480011 198.071213,412.767670 
	C198.459839,413.404877 198.747604,413.723969 199.019226,414.022400 
	C199.003067,414.001678 198.973618,413.958191 198.949112,414.351501 
	C200.927902,424.749084 202.931198,434.753387 204.792023,445.136749 
	C203.959137,449.709900 203.268707,453.903961 202.404236,459.155334 
	C215.987656,464.064758 229.514771,468.953857 243.447205,473.886169 
	C253.059006,476.677124 262.198242,477.426971 271.552124,472.996796 
	C285.874908,469.730621 298.971222,464.344788 311.547943,458.200012 
	C310.627747,453.229584 309.844055,448.996490 309.108429,444.353088 
	C311.115021,433.948883 313.073578,423.955017 315.013489,413.980591 
	C314.994781,414.000061 314.966003,414.045654 315.243683,413.862823 
	C315.690735,413.270630 315.860138,412.861237 316.191040,412.225220 
	C316.679169,411.138550 317.005737,410.278595 317.565125,409.152771 
	C321.490265,403.437042 324.802032,397.672485 328.977966,392.622559 
	C333.478973,387.179413 338.585388,382.107727 346.230957,381.108276 
	C350.231232,389.647308 349.104065,398.329498 348.817078,407.282532 
	C345.783295,421.356293 340.551971,434.082581 331.510773,446.037109 
	C342.480286,441.872925 371.580902,417.202911 378.935425,406.716125 
	C375.727631,398.603638 372.762756,391.105499 369.773285,383.226685 
	C369.430786,372.656555 369.112915,362.467102 368.890198,351.873169 
	C370.842346,342.463440 373.363647,333.736755 379.153351,326.308899 
	C381.138367,323.762238 383.159332,322.305359 386.100342,325.499695 
	C389.493439,332.661316 392.746857,339.528107 396.011169,346.796082 
	C398.388550,358.966583 398.510345,370.770111 396.424438,382.769470 
	C396.361359,383.308746 396.436584,383.683777 396.511841,384.058838 
	C396.689026,383.719879 396.866180,383.380920 397.349243,382.896179 
	C401.372894,376.788910 405.090668,370.827454 408.870178,365.239319 
	C411.371857,371.689270 414.433441,372.344940 418.553101,367.673523 
	C419.101074,367.052155 419.650635,366.432129 420.377960,365.702393 
	C420.755615,365.396576 420.930115,365.179993 421.092529,364.981384 
	C421.105103,365.019196 421.045563,365.072174 421.045563,365.072174 
z"/>
<path fill="#FECC71" opacity="1.000000" stroke="none" 
	d="
M166.576141,16.966793 
	C182.926331,15.781485 198.819061,14.408521 214.740021,13.575226 
	C253.140320,11.565372 291.509521,12.238119 329.822662,15.617273 
	C335.284546,16.099003 340.748108,16.561510 346.660889,16.973101 
	C359.697449,18.591696 372.332520,19.973150 384.859344,22.017952 
	C403.756866,25.102678 422.587494,28.602940 441.426086,32.038864 
	C445.544617,32.790039 449.614471,33.890656 453.621796,35.109608 
	C454.586243,35.402985 455.761810,36.728168 455.910278,37.718292 
	C458.033325,51.876698 460.257446,66.028992 461.895386,80.247475 
	C462.800415,88.103729 462.658386,96.080605 463.034668,104.462784 
	C462.461243,121.994759 462.883453,139.185516 460.959259,156.109497 
	C458.529510,177.479889 454.186890,198.632782 450.244293,219.868469 
	C446.439392,211.168152 443.020355,202.501816 435.915070,195.583084 
	C438.076874,176.502853 440.675415,157.886765 442.225861,139.183777 
	C444.531586,111.370193 442.353119,83.683174 437.900146,56.183144 
	C437.635773,54.550415 435.615265,52.204613 434.092133,51.923534 
	C413.008942,48.032658 391.869720,44.445366 370.805206,40.403870 
	C371.320099,38.433300 371.965118,36.867680 372.177338,35.245438 
	C372.419159,33.397079 372.274933,31.498219 372.298462,29.621307 
	C370.556854,29.780914 368.626068,29.506893 367.104431,30.170750 
	C357.487122,34.366566 347.960876,34.441422 338.387695,30.136129 
	C337.642181,29.800848 336.801941,29.672939 336.002106,29.462284 
	C332.710022,28.595249 331.627045,29.872099 332.464569,33.075512 
	C332.713867,34.029045 332.842468,35.014137 332.594971,35.966469 
	C320.594757,35.065281 309.039307,33.851349 297.453735,33.382244 
	C282.551208,32.778835 267.624512,32.772892 252.294113,32.474339 
	C228.610748,33.594296 205.308624,34.302532 182.080002,36.010406 
	C148.003250,38.515884 114.364685,44.235847 80.965233,51.392120 
	C77.789703,52.072525 76.073273,53.335201 75.771347,56.847889 
	C74.332779,73.584900 72.014259,90.273125 71.249405,107.035309 
	C69.885933,136.916626 72.953461,166.557861 77.968285,196.260803 
	C74.913460,200.324326 71.684830,203.892441 69.301483,207.956284 
	C66.994690,211.889587 65.557701,216.332993 63.738663,220.552338 
	C60.514267,203.587479 56.147816,186.742188 54.356121,169.627350 
	C52.143200,148.488846 52.070271,127.126305 50.995262,105.392563 
	C52.604603,87.476036 54.247692,70.023125 56.006256,52.581856 
	C56.495846,47.726120 57.202534,42.881699 58.093323,38.084770 
	C58.303890,36.950844 59.509171,35.333199 60.512459,35.115391 
	C75.061584,31.956877 89.619576,28.815756 104.246712,26.046915 
	C117.821938,23.477198 131.457062,21.192301 145.115295,19.105978 
	C152.064529,18.044470 159.122620,17.695583 166.576141,16.966793 
z"/>
<path fill="#B8E646" opacity="1.000000" stroke="none" 
	d="
M420.199463,365.811462 
	C419.650635,366.432129 419.101074,367.052155 418.553101,367.673523 
	C414.433441,372.344940 411.371857,371.689270 408.935638,364.881226 
	C412.778595,355.414856 416.728027,346.725006 420.342865,337.898102 
	C420.910797,336.511261 420.557465,333.991058 419.601654,332.877960 
	C416.720551,329.522827 413.332214,326.603271 410.003296,323.222717 
	C406.258850,316.274200 402.652740,309.616852 398.997253,302.576233 
	C398.299255,299.956543 397.595337,297.734528 397.011230,295.481384 
	C394.006622,283.890961 392.511841,272.252625 396.441376,260.564575 
	C398.071777,255.715088 399.508392,255.083466 403.579712,258.106903 
	C407.562042,261.064240 411.076477,264.651733 414.957703,268.279236 
	C418.998688,275.706665 422.878204,282.817474 426.834198,290.322388 
	C427.857819,293.788422 428.804962,296.860352 429.752106,299.932251 
	C430.235077,299.846741 430.718018,299.761200 431.200989,299.675690 
	C431.765198,291.838409 432.329437,284.001129 432.928589,275.869324 
	C433.000458,275.380524 433.037445,275.186249 433.458618,275.085785 
	C437.145599,275.124786 440.448425,275.070038 443.751221,275.015289 
	C443.442108,279.715607 443.132965,284.415924 442.822449,289.591492 
	C442.821014,290.066711 443.064972,290.272400 443.064972,290.272400 
	C443.064972,290.272400 442.909332,289.951874 442.909332,289.951874 
	C445.084625,288.037170 447.319153,286.185120 449.424316,284.196198 
	C456.275452,277.723297 463.731934,272.212280 472.918732,269.530640 
	C474.923248,268.945526 477.083710,268.894531 479.384460,268.567383 
	C481.130798,276.145691 479.800995,282.966370 477.216614,289.490875 
	C468.980591,310.283386 455.839417,326.560547 434.426910,335.059631 
	C433.365173,335.481079 432.270020,336.596039 431.818878,337.655670 
	C428.045776,346.518097 424.419983,355.443237 420.897644,364.710815 
	C421.045563,365.072174 421.105103,365.019196 420.854126,364.991791 
	C420.370911,365.200195 420.236328,365.482544 420.199463,365.811462 
z"/>
<path fill="#B8E646" opacity="1.000000" stroke="none" 
	d="
M105.184372,364.889282 
	C103.798660,366.778381 102.246376,370.325195 101.062447,370.206268 
	C98.707283,369.969543 96.554794,367.715942 93.994942,365.825500 
	C93.556847,364.970337 93.306450,364.833069 92.920128,364.943481 
	C92.920128,364.943481 92.894852,365.019135 92.924225,365.045441 
	C90.974396,360.057190 88.709435,355.133545 87.079384,350.007935 
	C84.260216,341.143219 79.577209,335.245056 70.653252,330.423279 
	C51.455444,320.050415 39.550247,302.849701 34.564995,281.379822 
	C33.657413,277.471161 34.052238,273.260101 33.810387,268.489502 
	C50.226994,269.913452 60.361923,279.911194 70.644867,290.060608 
	C70.889961,290.046570 71.129295,290.249329 71.129295,290.249329 
	C71.129295,290.249329 70.971596,290.019348 70.971596,290.019348 
	C70.729736,285.300751 70.487869,280.582184 70.598999,275.582764 
	C74.274796,275.199524 77.597603,275.097076 80.977867,275.288208 
	C81.059464,275.779602 81.083618,275.977417 81.070206,276.621277 
	C81.686386,284.662537 82.340118,292.257721 82.993858,299.852875 
	C83.496109,299.838959 83.998360,299.825073 84.500610,299.811157 
	C85.413208,296.516113 86.325813,293.221069 87.416321,289.640076 
	C91.476143,282.207245 95.358055,275.060364 99.490540,267.719727 
	C103.596283,264.157074 107.363083,260.679199 111.336609,257.456207 
	C114.155792,255.169510 116.594368,256.116730 117.082581,259.561768 
	C118.141632,267.034760 119.614334,274.614655 119.265549,282.073547 
	C118.938019,289.078186 116.485153,295.983429 114.766312,303.221252 
	C110.995598,310.172424 107.426041,316.834808 103.564606,323.688721 
	C100.614586,326.585663 98.197296,329.602814 95.223640,331.899658 
	C92.756836,333.804993 92.394287,335.480591 93.588303,338.166656 
	C97.532326,347.039246 101.330322,355.976715 105.184372,364.889282 
z"/>
<path fill="#CAEC73" opacity="1.000000" stroke="none" 
	d="
M443.984497,274.749146 
	C440.448425,275.070038 437.145599,275.124786 433.266174,274.801208 
	C426.432526,265.989502 424.504669,256.047760 422.782440,245.604980 
	C422.854980,238.232971 422.310211,231.205673 423.174683,224.356232 
	C424.512360,213.757416 427.090271,203.406082 435.882874,196.008347 
	C443.020355,202.501816 446.439392,211.168152 450.026611,220.200684 
	C450.873291,226.295670 451.739594,232.033142 452.101959,237.802277 
	C452.752716,248.164261 451.801727,258.387787 447.964264,268.140442 
	C447.076447,270.396667 445.485291,272.376160 443.984497,274.749146 
z"/>
<path fill="#CAEC73" opacity="1.000000" stroke="none" 
	d="
M80.920418,274.994629 
	C77.597603,275.097076 74.274796,275.199524 70.596283,275.162323 
	C63.906540,267.853882 62.487263,258.843262 62.191425,249.967804 
	C61.873695,240.435577 63.158714,230.849899 63.741505,220.919952 
	C65.557701,216.332993 66.994690,211.889587 69.301483,207.956284 
	C71.684830,203.892441 74.913460,200.324326 78.248833,196.419128 
	C81.508713,200.579788 84.993889,204.566193 86.937897,209.199280 
	C91.874359,220.964142 92.555801,233.416550 91.121628,246.413605 
	C89.459213,256.849640 87.104607,266.610596 80.920418,274.994629 
z"/>
<path fill="#FF9101" opacity="1.000000" stroke="none" 
	d="
M91.190704,246.012238 
	C92.555801,233.416550 91.874359,220.964142 86.937897,209.199280 
	C84.993889,204.566193 81.508713,200.579788 78.444801,196.140594 
	C72.953461,166.557861 69.885933,136.916626 71.249405,107.035309 
	C72.014259,90.273125 74.332779,73.584900 75.771347,56.847889 
	C76.073273,53.335201 77.789703,52.072525 80.965233,51.392120 
	C114.364685,44.235847 148.003250,38.515884 182.080002,36.010406 
	C205.308624,34.302532 228.610748,33.594296 252.305298,32.818172 
	C249.131088,45.746384 245.531586,58.295509 241.525024,70.913986 
	C237.190964,71.678589 233.213791,72.166351 229.344879,73.101898 
	C198.006897,80.679771 172.747818,97.252663 154.167877,124.208244 
	C145.665131,127.888100 137.367905,131.259262 129.206528,134.932266 
	C127.642746,135.636032 125.580727,137.558563 125.619904,138.862610 
	C125.661423,140.245163 127.703545,142.008408 129.277069,142.816589 
	C133.098831,144.779526 137.155594,146.284897 141.148590,148.348083 
	C141.237930,148.964096 141.296371,149.206619 141.302414,149.408264 
	C141.250031,149.367371 141.133362,149.303711 140.865204,149.597076 
	C130.763809,174.884720 129.341019,200.369019 136.007355,226.652573 
	C131.961349,232.338867 131.926727,237.671616 135.909760,243.344879 
	C132.327682,260.325775 128.845322,276.930573 125.312424,293.776276 
	C138.857010,295.793854 151.457352,295.935150 164.361801,293.733948 
	C163.195816,287.289642 162.137802,281.442139 161.366974,275.788513 
	C164.398468,278.768402 167.142776,281.554352 170.047104,284.622253 
	C176.800705,290.094757 183.181931,295.592010 190.067841,300.360443 
	C194.172546,303.202881 199.069672,304.901031 203.513474,307.466736 
	C203.538208,308.754364 203.332687,310.247223 203.831085,310.539459 
	C210.998703,314.741791 214.890274,321.550537 218.565002,328.568695 
	C218.662170,328.754242 219.165649,328.727051 220.046295,328.929077 
	C221.616501,326.959686 223.052322,324.442566 225.142014,322.717560 
	C227.807053,320.517578 231.000519,318.957703 234.237305,317.394470 
	C243.630325,318.509521 252.752289,319.352051 261.933350,320.554443 
	C271.516174,344.968842 284.461395,367.132965 299.638428,387.986237 
	C305.079773,395.462677 311.408569,402.293243 317.332306,409.418610 
	C317.005737,410.278595 316.679169,411.138550 315.945862,412.445160 
	C315.348083,413.276398 315.157043,413.661011 314.966003,414.045654 
	C314.966003,414.045654 314.994781,414.000061 314.670258,414.022858 
	C312.931335,415.187897 311.540558,416.360962 310.098907,417.467682 
	C293.775543,429.998596 277.414185,442.480286 261.142426,455.077759 
	C258.121429,457.416534 255.621765,457.197998 252.703476,454.960602 
	C237.159805,443.043610 221.542953,431.222107 205.956680,419.360657 
	C203.614807,417.578491 201.300613,415.759918 198.973618,413.958191 
	C198.973618,413.958191 199.003067,414.001678 198.936523,413.703888 
	C198.570099,413.087250 198.270218,412.768433 197.970352,412.449585 
	C192.393051,404.480011 187.280670,396.118652 181.037567,388.710144 
	C178.024902,385.135071 172.884445,383.353058 168.104599,380.506622 
	C160.065430,370.956970 152.629089,361.659851 145.192764,352.362732 
	C143.247055,342.930298 140.747009,333.735657 134.591919,325.975952 
	C132.661789,323.542664 130.748245,322.423798 127.656921,324.708527 
	C123.099503,317.274048 119.033478,310.103241 114.967453,302.932404 
	C116.485153,295.983429 118.938019,289.078186 119.265549,282.073547 
	C119.614334,274.614655 118.141632,267.034760 117.082581,259.561768 
	C116.594368,256.116730 114.155792,255.169510 111.336609,257.456207 
	C107.363083,260.679199 103.596283,264.157074 99.384583,267.358765 
	C96.415619,260.131775 93.803162,253.072006 91.190704,246.012238 
z"/>
<path fill="#FFB52D" opacity="1.000000" stroke="none" 
	d="
M241.932068,70.844635 
	C245.531586,58.295509 249.131088,45.746384 252.719406,32.853420 
	C267.624512,32.772892 282.551208,32.778835 297.453735,33.382244 
	C309.039307,33.851349 320.594757,35.065281 332.801117,36.276764 
	C337.519318,45.204704 337.367188,53.824467 333.629791,62.491840 
	C333.107849,63.702297 332.879303,65.036552 332.471619,66.299522 
	C331.355042,69.758858 333.177704,71.026474 335.964172,69.824326 
	C347.223907,64.966682 358.290649,64.923782 369.531036,69.859352 
	C372.249695,71.053101 373.705841,69.519691 372.923981,66.549110 
	C372.121948,63.501915 371.412598,60.390087 370.202911,57.498932 
	C367.808868,51.777210 368.194580,46.278286 370.744202,40.783802 
	C391.869720,44.445366 413.008942,48.032658 434.092133,51.923534 
	C435.615265,52.204613 437.635773,54.550415 437.900146,56.183144 
	C442.353119,83.683174 444.531586,111.370193 442.225861,139.183777 
	C440.675415,157.886765 438.076874,176.502853 435.915070,195.583084 
	C427.090271,203.406082 424.512360,213.757416 423.174683,224.356232 
	C422.310211,231.205673 422.854980,238.232971 422.612854,245.903381 
	C419.903717,253.738358 417.349976,260.850494 414.796265,267.962646 
	C411.076477,264.651733 407.562042,261.064240 403.579712,258.106903 
	C399.508392,255.083466 398.071777,255.715088 396.441376,260.564575 
	C392.511841,272.252625 394.006622,283.890961 397.011230,295.481384 
	C397.595337,297.734528 398.299255,299.956543 398.770020,302.837219 
	C394.381683,310.722595 390.171173,317.963715 385.960693,325.204834 
	C383.159332,322.305359 381.138367,323.762238 379.153351,326.308899 
	C373.363647,333.736755 370.842346,342.463440 368.681702,352.094971 
	C360.946533,362.064972 353.515076,371.408661 346.083618,380.752380 
	C338.585388,382.107727 333.478973,387.179413 328.977966,392.622559 
	C324.802032,397.672485 321.490265,403.437042 317.565125,409.152771 
	C311.408569,402.293243 305.079773,395.462677 299.638428,387.986237 
	C284.461395,367.132965 271.516174,344.968842 262.374084,320.490295 
	C272.419281,318.401703 282.288818,317.490448 291.703918,314.916809 
	C311.793610,309.425232 329.439789,299.317871 344.365143,284.096741 
	C380.370239,249.826599 392.170410,193.067032 373.078491,148.315887 
	C377.017059,146.618729 380.801361,145.361038 384.279419,143.523682 
	C386.272705,142.470688 387.768524,140.476059 389.488312,138.905334 
	C387.822845,137.311783 386.417816,135.180344 384.443573,134.224380 
	C378.234772,131.217987 371.812042,128.653351 365.728790,125.680008 
	C368.953400,123.972458 369.799591,122.010239 366.634186,120.053833 
	C361.051880,116.603668 357.425476,111.773445 355.125244,105.707703 
	C353.916260,102.519615 351.978485,102.752022 350.065948,105.272919 
	C349.368103,106.192734 348.701599,107.136330 347.676819,108.015869 
	C346.393463,107.299789 345.353638,106.742599 344.529327,105.958778 
	C315.701294,78.546356 281.507874,66.839561 241.932068,70.844635 
z"/>
<path fill="#FECC70" opacity="1.000000" stroke="none" 
	d="
M198.949112,414.351501 
	C201.300613,415.759918 203.614807,417.578491 205.956680,419.360657 
	C221.542953,431.222107 237.159805,443.043610 252.703476,454.960602 
	C255.621765,457.197998 258.121429,457.416534 261.142426,455.077759 
	C277.414185,442.480286 293.775543,429.998596 310.098907,417.467682 
	C311.540558,416.360962 312.931335,415.187897 314.688965,414.003418 
	C313.073578,423.955017 311.115021,433.948883 308.798096,444.515930 
	C304.932007,447.866272 301.493896,450.737274 297.902771,453.402100 
	C289.027039,459.988434 280.081238,466.480347 271.163574,473.010193 
	C262.198242,477.426971 253.059006,476.677124 243.419373,473.544586 
	C242.587051,472.673401 242.268463,472.077209 241.776993,471.716675 
	C229.507233,462.715240 217.219238,453.738647 204.934479,444.757660 
	C202.931198,434.753387 200.927902,424.749084 198.949112,414.351501 
z"/>
<path fill="#534B98" opacity="1.000000" stroke="none" 
	d="
M369.797852,383.607361 
	C372.762756,391.105499 375.727631,398.603638 378.935425,406.716125 
	C371.580902,417.202911 342.480286,441.872925 331.510773,446.037109 
	C340.551971,434.082581 345.783295,421.356293 349.093628,407.095764 
	C356.253845,398.897644 363.025848,391.252502 369.797852,383.607361 
z"/>
<path fill="#534B98" opacity="1.000000" stroke="none" 
	d="
M165.056244,406.869720 
	C167.182205,413.671722 168.814468,420.682251 171.574829,427.216248 
	C174.263611,433.580811 178.106812,439.457672 182.105759,446.758301 
	C163.476532,435.027496 147.867462,421.552094 134.915405,406.904541 
	C138.180832,398.771606 141.066498,391.584442 144.360046,384.207703 
	C151.530685,391.635345 158.293472,399.252533 165.056244,406.869720 
z"/>
<path fill="#534B98" opacity="1.000000" stroke="none" 
	d="
M410.141663,323.513855 
	C413.332214,326.603271 416.720551,329.522827 419.601654,332.877960 
	C420.557465,333.991058 420.910797,336.511261 420.342865,337.898102 
	C416.728027,346.725006 412.778595,355.414856 408.873901,364.507904 
	C405.090668,370.827454 401.372894,376.788910 397.229858,382.786133 
	C396.804626,382.821869 396.562714,382.605225 396.562714,382.605225 
	C398.510345,370.770111 398.388550,358.966583 396.293091,346.567047 
	C401.089966,338.462463 405.615814,330.988159 410.141663,323.513855 
z"/>
<path fill="#534B98" opacity="1.000000" stroke="none" 
	d="
M105.439423,365.107361 
	C101.330322,355.976715 97.532326,347.039246 93.588303,338.166656 
	C92.394287,335.480591 92.756836,333.804993 95.223640,331.899658 
	C98.197296,329.602814 100.614586,326.585663 103.758621,324.015930 
	C108.827919,331.564667 113.411316,338.977783 117.994713,346.390869 
	C115.968651,358.148346 115.182419,369.926422 117.299507,382.289490 
	C117.191551,382.824463 116.958275,383.040405 116.958275,383.040405 
	C113.203674,377.135406 109.449066,371.230408 105.439423,365.107361 
z"/>
<path fill="#FDCC70" opacity="1.000000" stroke="none" 
	d="
M369.773254,383.226685 
	C363.025848,391.252502 356.253845,398.897644 349.205292,406.729553 
	C349.104065,398.329498 350.231232,389.647308 346.230957,381.108276 
	C353.515076,371.408661 360.946533,362.064972 368.586487,352.499451 
	C369.112915,362.467102 369.430786,372.656555 369.773254,383.226685 
z"/>
<path fill="#FDCC70" opacity="1.000000" stroke="none" 
	d="
M165.060898,406.409058 
	C158.293472,399.252533 151.530685,391.635345 144.486969,383.826599 
	C144.525177,373.478333 144.844345,363.321594 145.178131,352.763794 
	C152.629089,361.659851 160.065430,370.956970 167.722992,380.473511 
	C163.934097,388.763733 164.768494,397.386719 165.060898,406.409058 
z"/>
<path fill="#FDCC70" opacity="1.000000" stroke="none" 
	d="
M410.003296,323.222717 
	C405.615814,330.988159 401.089966,338.462463 396.282196,346.165833 
	C392.746857,339.528107 389.493439,332.661316 386.100342,325.499695 
	C390.171173,317.963715 394.381683,310.722595 398.819397,303.220490 
	C402.652740,309.616852 406.258850,316.274200 410.003296,323.222717 
z"/>
<path fill="#FDCC70" opacity="1.000000" stroke="none" 
	d="
M118.166260,346.042725 
	C113.411316,338.977783 108.827919,331.564667 104.050507,323.824371 
	C107.426041,316.834808 110.995598,310.172424 114.766312,303.221252 
	C119.033478,310.103241 123.099503,317.274048 127.346954,324.770752 
	C124.464859,331.962585 121.401337,338.828583 118.166260,346.042725 
z"/>
<path fill="#564E96" opacity="1.000000" stroke="none" 
	d="
M204.792023,445.136749 
	C217.219238,453.738647 229.507233,462.715240 241.776993,471.716675 
	C242.268463,472.077209 242.587051,472.673401 243.014053,473.501343 
	C229.514771,468.953857 215.987656,464.064758 202.404236,459.155334 
	C203.268707,453.903961 203.959137,449.709900 204.792023,445.136749 
z"/>
<path fill="#564E96" opacity="1.000000" stroke="none" 
	d="
M271.552124,472.996826 
	C280.081238,466.480347 289.027039,459.988434 297.902771,453.402100 
	C301.493896,450.737274 304.932007,447.866272 308.750061,444.926270 
	C309.844055,448.996490 310.627747,453.229584 311.547943,458.200012 
	C298.971222,464.344788 285.874908,469.730621 271.552124,472.996826 
z"/>
<path fill="#534B98" opacity="1.000000" stroke="none" 
	d="
M117.309570,382.718018 
	C117.447617,383.092865 117.467651,383.574219 117.487694,384.055542 
	C117.313080,383.854889 117.138458,383.654236 116.961060,383.247009 
	C116.958275,383.040405 117.191551,382.824463 117.309570,382.718018 
z"/>
<path fill="#534B98" opacity="1.000000" stroke="none" 
	d="
M396.924011,382.931915 
	C396.866180,383.380920 396.689026,383.719879 396.511841,384.058838 
	C396.436584,383.683777 396.361359,383.308746 396.424438,382.769470 
	C396.562714,382.605225 396.804626,382.821869 396.924011,382.931915 
z"/>
<path fill="#51499A" opacity="1.000000" stroke="none" 
	d="
M420.377930,365.702362 
	C420.236328,365.482544 420.370911,365.200195 420.841553,364.953979 
	C420.930115,365.179993 420.755615,365.396576 420.377930,365.702362 
z"/>
<path fill="#51499A" opacity="1.000000" stroke="none" 
	d="
M93.041245,365.113434 
	C93.306450,364.833069 93.556847,364.970337 93.734322,365.584778 
	C93.535484,365.697327 93.323822,365.520355 93.041245,365.113434 
z"/>
<path fill="#FECC70" opacity="1.000000" stroke="none" 
	d="
M198.071213,412.767670 
	C198.270218,412.768433 198.570099,413.087250 198.952667,413.724609 
	C198.747604,413.723969 198.459839,413.404877 198.071213,412.767670 
z"/>
<path fill="#FECC70" opacity="1.000000" stroke="none" 
	d="
M315.243683,413.862823 
	C315.157043,413.661011 315.348083,413.276398 315.784302,412.671814 
	C315.860138,412.861237 315.690735,413.270630 315.243683,413.862823 
z"/>
<path fill="#FFFEFC" opacity="1.000000" stroke="none" 
	d="
M370.805206,40.403870 
	C368.194580,46.278286 367.808868,51.777210 370.202911,57.498932 
	C371.412598,60.390087 372.121948,63.501915 372.923981,66.549110 
	C373.705841,69.519691 372.249695,71.053101 369.531036,69.859352 
	C358.290649,64.923782 347.223907,64.966682 335.964172,69.824326 
	C333.177704,71.026474 331.355042,69.758858 332.471619,66.299522 
	C332.879303,65.036552 333.107849,63.702297 333.629791,62.491840 
	C337.367188,53.824467 337.519318,45.204704 333.232513,36.295067 
	C332.842468,35.014137 332.713867,34.029045 332.464569,33.075512 
	C331.627045,29.872099 332.710022,28.595249 336.002106,29.462284 
	C336.801941,29.672939 337.642181,29.800848 338.387695,30.136129 
	C347.960876,34.441422 357.487122,34.366566 367.104431,30.170750 
	C368.626068,29.506893 370.556854,29.780914 372.298462,29.621307 
	C372.274933,31.498219 372.419159,33.397079 372.177338,35.245438 
	C371.965118,36.867680 371.320099,38.433300 370.805206,40.403870 
z"/>
<path fill="#FDCD70" opacity="1.000000" stroke="none" 
	d="
M414.957703,268.279236 
	C417.349976,260.850494 419.903717,253.738358 422.627014,246.327805 
	C424.504669,256.047760 426.432526,265.989502 432.881989,274.707458 
	C433.037445,275.186249 433.000458,275.380524 432.693115,276.111877 
	C430.534393,281.075409 428.646057,285.501831 426.757721,289.928284 
	C422.878204,282.817474 418.998688,275.706665 414.957703,268.279236 
z"/>
<path fill="#5A5394" opacity="1.000000" stroke="none" 
	d="
M426.834198,290.322388 
	C428.646057,285.501831 430.534393,281.075409 432.658203,276.406403 
	C432.329437,284.001129 431.765198,291.838409 431.200989,299.675690 
	C430.718018,299.761200 430.235077,299.846741 429.752106,299.932251 
	C428.804962,296.860352 427.857819,293.788422 426.834198,290.322388 
z"/>
<path fill="#51499A" opacity="1.000000" stroke="none" 
	d="
M442.939758,289.966309 
	C442.909332,289.951874 443.064972,290.272400 443.064972,290.272400 
	C443.064972,290.272400 442.821014,290.066711 442.923584,290.042419 
	C443.026184,290.018158 442.970215,289.980743 442.939758,289.966309 
z"/>
<path fill="#FDCC70" opacity="1.000000" stroke="none" 
	d="
M91.121628,246.413605 
	C93.803162,253.072006 96.415619,260.131775 99.134018,267.552490 
	C95.358055,275.060364 91.476143,282.207245 87.286972,289.298981 
	C85.022400,284.887634 83.065086,280.531433 81.107765,276.175232 
	C81.083618,275.977417 81.059464,275.779602 80.977867,275.288208 
	C87.104607,266.610596 89.459213,256.849640 91.121628,246.413605 
z"/>
<path fill="#5B5494" opacity="1.000000" stroke="none" 
	d="
M81.070206,276.621277 
	C83.065086,280.531433 85.022400,284.887634 87.109070,289.584930 
	C86.325813,293.221069 85.413208,296.516113 84.500610,299.811157 
	C83.998360,299.825073 83.496109,299.838959 82.993858,299.852875 
	C82.340118,292.257721 81.686386,284.662537 81.070206,276.621277 
z"/>
<path fill="#51499A" opacity="1.000000" stroke="none" 
	d="
M71.001816,289.999756 
	C70.971596,290.019348 71.129295,290.249329 71.129295,290.249329 
	C71.129295,290.249329 70.889961,290.046570 70.994362,289.999847 
	C71.098763,289.953125 71.032036,289.980194 71.001816,289.999756 
z"/>
<path fill="#5F55AF" opacity="1.000000" stroke="none" 
	d="
M141.117676,147.974594 
	C137.155594,146.284897 133.098831,144.779526 129.277069,142.816589 
	C127.703545,142.008408 125.661423,140.245163 125.619904,138.862610 
	C125.580727,137.558563 127.642746,135.636032 129.206528,134.932266 
	C137.367905,131.259262 145.665131,127.888100 154.570801,124.175079 
	C157.233521,123.141907 159.248550,122.365067 161.246353,121.546249 
	C183.841156,112.285553 206.433319,103.018417 228.930847,94.097382 
	C227.544388,96.141083 226.398468,97.978111 224.938660,99.517471 
	C215.229584,109.755692 214.327393,122.594482 222.688431,133.944122 
	C230.451004,144.481415 241.258392,151.376526 253.131927,155.562180 
	C268.723724,161.058594 284.958923,164.742020 300.949371,169.087540 
	C305.246887,170.255417 309.660339,170.996658 313.757996,172.171570 
	C297.713776,178.969040 282.066101,185.882935 266.088287,191.923782 
	C259.154938,194.545120 251.668884,193.553757 244.653015,190.677948 
	C239.124252,188.411713 233.571335,186.204407 227.732849,183.781738 
	C207.631317,175.417847 187.826080,167.243164 167.693207,158.920929 
	C161.021484,156.253693 154.677414,153.733994 148.023087,151.011353 
	C145.858749,150.177414 144.004654,149.546402 141.996490,148.739960 
	C141.630066,148.331970 141.388489,148.135330 141.117676,147.974594 
z"/>
<path fill="#FFCD71" opacity="1.000000" stroke="none" 
	d="
M344.081604,284.291351 
	C329.439789,299.317871 311.793610,309.425232 291.703918,314.916809 
	C282.288818,317.490448 272.419281,318.401703 262.314972,320.130493 
	C252.752289,319.352051 243.630325,318.509521 234.369171,317.070801 
	C240.142181,312.913940 239.961884,312.883575 234.806442,308.416077 
	C231.775177,305.789307 228.865189,302.637909 226.992523,299.138245 
	C222.978500,291.636688 222.713974,291.297485 217.935654,298.151337 
	C214.348557,303.296539 209.361786,305.690887 203.610565,307.113617 
	C199.069672,304.901031 194.172546,303.202881 190.067841,300.360443 
	C183.181931,295.592010 176.800705,290.094757 170.246277,284.328766 
	C178.221680,277.586670 186.157944,271.419983 194.432907,265.325043 
	C210.692749,271.281311 226.960876,275.562164 244.459442,276.151581 
	C252.317093,276.302795 259.771881,276.619965 267.207397,276.368469 
	C285.237305,275.758514 302.560028,271.486908 319.903748,265.796143 
	C328.202057,272.050537 336.141846,278.170929 344.081604,284.291351 
z"/>
<path fill="#FED893" opacity="1.000000" stroke="none" 
	d="
M194.094208,265.253326 
	C186.157944,271.419983 178.221680,277.586670 170.086243,284.046814 
	C167.142776,281.554352 164.398468,278.768402 161.232361,275.449524 
	C158.516571,264.291779 156.222580,253.666946 154.111328,242.724808 
	C159.154175,234.032410 157.482620,228.551102 148.377441,222.497559 
	C148.371292,198.425705 148.352310,174.820007 148.333344,151.214294 
	C154.677414,153.733994 161.021484,156.253693 167.704651,159.318817 
	C174.668961,191.589706 181.359573,223.301834 187.842972,255.056259 
	C188.728226,259.391968 190.289185,262.905243 194.094208,265.253326 
z"/>
<path fill="#FED892" opacity="1.000000" stroke="none" 
	d="
M229.026199,93.753006 
	C206.433319,103.018417 183.841156,112.285553 161.246353,121.546249 
	C159.248550,122.365067 157.233521,123.141907 154.823578,123.971405 
	C172.747818,97.252663 198.006897,80.679771 229.344879,73.101898 
	C233.213791,72.166351 237.190964,71.678589 241.525024,70.913986 
	C281.507874,66.839561 315.701294,78.546356 344.529327,105.958778 
	C345.353638,106.742599 346.393463,107.299789 347.511871,108.303482 
	C344.559570,110.768822 341.428192,112.893326 337.935547,114.917633 
	C315.060699,105.481270 292.542755,96.155350 270.035828,86.803047 
	C262.714203,83.760696 255.236359,82.870651 247.731079,85.751617 
	C241.404510,88.180130 235.254410,91.068298 229.026199,93.753006 
z"/>
<path fill="#534999" opacity="1.000000" stroke="none" 
	d="
M153.928574,243.042130 
	C156.222580,253.666946 158.516571,264.291779 160.945175,275.255615 
	C162.137802,281.442139 163.195816,287.289642 164.361801,293.733948 
	C151.457352,295.935150 138.857010,295.793854 125.312424,293.776276 
	C128.845322,276.930573 132.327682,260.325775 136.204254,243.531525 
	C143.238403,248.105606 145.930634,248.059006 153.928574,243.042130 
z"/>
<path fill="#FFFDFB" opacity="1.000000" stroke="none" 
	d="
M203.513474,307.466736 
	C209.361786,305.690887 214.348557,303.296539 217.935654,298.151337 
	C222.713974,291.297485 222.978500,291.636688 226.992523,299.138245 
	C228.865189,302.637909 231.775177,305.789307 234.806442,308.416077 
	C239.961884,312.883575 240.142181,312.913940 234.098083,316.798279 
	C231.000519,318.957703 227.807053,320.517578 225.142014,322.717560 
	C223.052322,324.442566 221.616501,326.959686 220.046295,328.929077 
	C219.165649,328.727051 218.662170,328.754242 218.565002,328.568695 
	C214.890274,321.550537 210.998703,314.741791 203.831085,310.539459 
	C203.332687,310.247223 203.538208,308.754364 203.513474,307.466736 
z"/>
<path fill="#FFD790" opacity="1.000000" stroke="none" 
	d="
M136.143524,226.332520 
	C129.341019,200.369019 130.763809,174.884720 140.956177,150.116089 
	C141.359543,174.533264 141.403809,198.724747 141.184448,223.151184 
	C139.328400,224.368240 137.735962,225.350372 136.143524,226.332520 
z"/>
<path fill="#453D83" opacity="1.000000" stroke="none" 
	d="
M141.448059,222.916245 
	C141.403809,198.724747 141.359543,174.533264 141.224335,149.822739 
	C141.133362,149.303711 141.250031,149.367371 141.518677,149.299881 
	C141.787323,149.232391 142.150574,148.915390 142.150574,148.915390 
	C144.004654,149.546402 145.858749,150.177414 148.023087,151.011353 
	C148.352310,174.820007 148.371292,198.425705 147.940506,222.527649 
	C145.476517,222.988007 143.462280,222.952133 141.448059,222.916245 
z"/>
<path fill="#7163A5" opacity="1.000000" stroke="none" 
	d="
M141.184448,223.151184 
	C143.462280,222.952133 145.476517,222.988007 147.927673,222.993805 
	C157.482620,228.551102 159.154175,234.032410 154.111328,242.724808 
	C145.930634,248.059006 143.238403,248.105606 136.303970,243.155411 
	C131.926727,237.671616 131.961349,232.338867 136.007355,226.652573 
	C137.735962,225.350372 139.328400,224.368240 141.184448,223.151184 
z"/>
<path fill="#7163A5" opacity="1.000000" stroke="none" 
	d="
M141.996490,148.739960 
	C142.150574,148.915390 141.787323,149.232391 141.571060,149.340775 
	C141.296371,149.206619 141.237930,148.964096 141.148590,148.348083 
	C141.388489,148.135330 141.630066,148.331970 141.996490,148.739960 
z"/>
<path fill="#6A61B4" opacity="1.000000" stroke="none" 
	d="
M228.930847,94.097382 
	C235.254410,91.068298 241.404510,88.180130 247.731079,85.751617 
	C255.236359,82.870651 262.714203,83.760696 270.035828,86.803047 
	C292.542755,96.155350 315.060699,105.481270 337.762878,115.226685 
	C336.262909,116.745621 334.574432,117.855324 333.557129,118.523911 
	C339.147125,125.503975 344.311005,131.951981 349.799866,138.805740 
	C354.553345,134.418610 357.551849,127.011353 365.472137,125.917679 
	C371.812042,128.653351 378.234772,131.217987 384.443573,134.224380 
	C386.417816,135.180344 387.822845,137.311783 389.488312,138.905334 
	C387.768524,140.476059 386.272705,142.470688 384.279419,143.523682 
	C380.801361,145.361038 377.017059,146.618729 372.720093,148.432587 
	C363.465363,152.501709 354.851715,156.257629 345.845520,160.043182 
	C342.206024,161.260483 338.947052,162.416351 335.714600,163.642303 
	C328.476227,166.387589 321.251099,169.167786 314.020569,171.933746 
	C309.660339,170.996658 305.246887,170.255417 300.949371,169.087540 
	C284.958923,164.742020 268.723724,161.058594 253.131927,155.562180 
	C241.258392,151.376526 230.451004,144.481415 222.688431,133.944122 
	C214.327393,122.594482 215.229584,109.755692 224.938660,99.517471 
	C226.398468,97.978111 227.544388,96.141083 228.930847,94.097382 
z"/>
<path fill="#FED893" opacity="1.000000" stroke="none" 
	d="
M346.238037,160.013550 
	C354.851715,156.257629 363.465363,152.501709 372.437439,148.629089 
	C392.170410,193.067032 380.370239,249.826599 344.365143,284.096741 
	C336.141846,278.170929 328.202057,272.050537 320.155273,265.564575 
	C322.165009,262.213409 325.309448,259.505127 326.204224,256.189728 
	C328.799255,246.574310 330.522400,236.721558 332.531372,226.950363 
	C337.118073,204.641769 341.671265,182.326263 346.238037,160.013550 
z"/>
<path fill="#FDE5BE" opacity="1.000000" stroke="none" 
	d="
M365.728790,125.680008 
	C357.551849,127.011353 354.553345,134.418610 349.799866,138.805740 
	C344.311005,131.951981 339.147125,125.503975 333.557129,118.523911 
	C334.574432,117.855324 336.262909,116.745621 338.124084,115.326874 
	C341.428192,112.893326 344.559570,110.768822 347.855896,108.356705 
	C348.701599,107.136330 349.368103,106.192734 350.065948,105.272919 
	C351.978485,102.752022 353.916260,102.519615 355.125244,105.707703 
	C357.425476,111.773445 361.051880,116.603668 366.634186,120.053833 
	C369.799591,122.010239 368.953400,123.972458 365.728790,125.680008 
z"/>
<path fill="#52489A" opacity="1.000000" stroke="none" 
	d="
M345.845520,160.043182 
	C341.671265,182.326263 337.118073,204.641769 332.531372,226.950363 
	C330.522400,236.721558 328.799255,246.574310 326.204224,256.189728 
	C325.309448,259.505127 322.165009,262.213409 319.796722,265.430603 
	C302.560028,271.486908 285.237305,275.758514 267.207397,276.368469 
	C259.771881,276.619965 252.317093,276.302795 244.434753,275.748260 
	C243.288681,272.532623 242.514282,269.828064 241.880035,267.091003 
	C238.552078,252.729401 234.601044,238.470871 232.149277,223.959778 
	C229.921494,210.774521 229.337677,197.311508 228.029144,183.970932 
	C233.571335,186.204407 239.124252,188.411713 244.653015,190.677948 
	C251.668884,193.553757 259.154938,194.545120 266.088287,191.923782 
	C282.066101,185.882935 297.713776,178.969040 313.757996,172.171570 
	C321.251099,169.167786 328.476227,166.387589 335.714600,163.642303 
	C338.947052,162.416351 342.206024,161.260483 345.845520,160.043182 
z"/>
<path fill="#463E83" opacity="1.000000" stroke="none" 
	d="
M227.732849,183.781738 
	C229.337677,197.311508 229.921494,210.774521 232.149277,223.959778 
	C234.601044,238.470871 238.552078,252.729401 241.880035,267.091003 
	C242.514282,269.828064 243.288681,272.532623 244.023117,275.655518 
	C226.960876,275.562164 210.692749,271.281311 194.432907,265.325043 
	C190.289185,262.905243 188.728226,259.391968 187.842972,255.056259 
	C181.359573,223.301834 174.668961,191.589706 168.032288,159.466354 
	C187.826080,167.243164 207.631317,175.417847 227.732849,183.781738 
z"/>
</svg>